<svg width="98" height="98" viewBox="0 0 98 98" fill="none" xmlns="http://www.w3.org/2000/svg">
<path d="M97.4997 47.6257L93.2359 42.5749L95.9183 36.5156C96.3366 35.5685 96.0125 34.453 95.1533 33.8837L89.6526 30.2494L90.5356 23.6727C90.6738 22.6437 90.0518 21.6653 89.0663 21.3645L82.7767 19.4414L81.79 12.8803C81.6351 11.8538 80.764 11.0932 79.7356 11.0836L73.1624 11.0307L70.3834 5.01712C69.9496 4.07724 68.9057 3.59226 67.9131 3.87868L61.5913 5.69586L57.2465 0.716071C56.5661 -0.062547 55.428 -0.227416 54.5581 0.32616L49.0002 3.86905L43.4435 0.32616C42.5748 -0.227416 41.4356 -0.062547 40.7539 0.716071L36.4091 5.69586L30.0886 3.87868C29.0983 3.59226 28.052 4.07845 27.6182 5.01712L24.8381 11.0319L18.2661 11.0848C17.2389 11.0944 16.3678 11.855 16.2129 12.8815L15.2238 19.4426L8.93299 21.3657C7.94987 21.6665 7.32663 22.6449 7.46487 23.6739L8.3467 30.2506L2.84837 33.8849C1.9868 34.453 1.66267 35.5685 2.08213 36.5168L4.76337 42.5761L0.499604 47.6269C-0.166535 48.4175 -0.166535 49.5801 0.499604 50.3695L4.76337 55.4227L2.08213 61.4808C1.66267 62.4303 1.9868 63.5458 2.84837 64.1139L8.3467 67.7482L7.46487 74.3261C7.32663 75.3539 7.94987 76.3335 8.93299 76.6331L15.2238 78.5562L16.2129 85.1173C16.3666 86.1438 17.2377 86.9044 18.2661 86.9128L24.8381 86.9681L27.6182 92.9817C28.0532 93.9228 29.0983 94.4089 30.0886 94.1213L36.4091 92.3041L40.7527 97.2839C41.1639 97.7545 41.7406 98 42.3245 98C42.7094 98 43.0967 97.8953 43.4411 97.6738L48.999 94.1321L54.5569 97.6738C55.4257 98.2274 56.5649 98.0626 57.2453 97.2839L61.5901 92.3029L67.9119 94.1213C68.9045 94.4077 69.9484 93.9228 70.3822 92.9817L73.1612 86.9681L79.7344 86.9128C80.7616 86.9044 81.6339 86.1426 81.7888 85.1173L82.7755 78.5562L89.0651 76.6331C90.0506 76.3335 90.6738 75.3539 90.5344 74.3261L89.6514 67.7482L95.1521 64.1139C96.0113 63.5458 96.3342 62.4315 95.9171 61.4808L93.2347 55.4227L97.4985 50.3695C98.167 49.5801 98.167 48.4163 97.4997 47.6257ZM88.8744 55.9281L91.3662 61.5614L86.2551 64.9394C85.5807 65.3847 85.2184 66.1837 85.3268 66.9924L86.1467 73.1071L80.2992 74.8918C79.5258 75.1288 78.9574 75.7919 78.8347 76.597L77.9159 82.696L71.8074 82.7477C70.9995 82.7537 70.269 83.2279 69.9258 83.968L67.3423 89.5579L61.4674 87.8707C60.6916 87.6481 59.8575 87.8936 59.3212 88.5061L55.2839 93.1345L50.1192 89.8431C49.776 89.6241 49.3887 89.517 49.0002 89.517C48.6117 89.517 48.2245 89.6253 47.8825 89.8431L42.7166 93.1345L38.6781 88.5061C38.1454 87.8924 37.3112 87.6481 36.5343 87.8707L30.6582 89.5579L28.0746 83.968C27.7326 83.2291 27.0022 82.7537 26.1942 82.7477L20.0869 82.696L19.1694 76.597C19.0466 75.7919 18.477 75.1288 17.7048 74.8918L11.8585 73.1071L12.6784 66.9924C12.7868 66.1837 12.4258 65.3847 11.7501 64.9394L6.63785 61.5614L9.12962 55.9281C9.45971 55.1844 9.33577 54.3143 8.81263 53.6946L4.84917 48.9988L8.81263 44.3042C9.33577 43.6833 9.45971 42.8144 9.13081 42.0707L6.63904 36.4374L11.7513 33.0594C12.4269 32.6129 12.788 31.8138 12.6796 31.0051L11.8597 24.8917L17.706 23.1058C18.4782 22.8688 19.0478 22.2045 19.1706 21.4006L20.0893 15.3004L26.1966 15.2499C27.0045 15.2439 27.735 14.7685 28.077 14.0296L30.6606 8.43847L36.5366 10.1281C37.31 10.3519 38.1478 10.104 38.6804 9.49267L42.719 4.86429L47.8848 8.15687C48.5688 8.59251 49.4376 8.59251 50.1216 8.15687L55.2862 4.86429L59.3236 9.49267C59.8598 10.1052 60.6952 10.3519 61.4698 10.1281L67.3447 8.43847L69.9282 14.0296C70.2714 14.7685 71.0019 15.2439 71.8098 15.2499L77.9183 15.3004L78.8371 21.3994C78.9598 22.2057 79.527 22.87 80.3016 23.1058L86.1491 24.8917L85.3292 31.0051C85.2208 31.8138 85.583 32.6129 86.2575 33.0594L91.3686 36.4374L88.8768 42.0707C88.5479 42.8144 88.6706 43.6845 89.195 44.3042L93.1584 48.9988L89.195 53.6946C88.6682 54.3143 88.5455 55.1844 88.8744 55.9281Z" fill="#011414"/>
<path d="M66.2638 27.5044C65.3772 26.7558 64.0557 26.8762 63.3133 27.7715L29.3926 68.7952C28.6514 69.6905 28.7706 71.0263 29.6584 71.7737C30.0504 72.1034 30.5259 72.2647 30.999 72.2647C31.5972 72.2647 32.193 72.0059 32.6077 71.5053L66.5296 30.4829C67.2696 29.5863 67.1516 28.2517 66.2638 27.5044Z" fill="#011414"/>
<path d="M38.1192 42.6615C43.4304 42.6615 47.7514 38.2967 47.7514 32.9342C47.7514 27.5706 43.4304 23.2069 38.1192 23.2069C32.8079 23.2069 28.487 27.5706 28.487 32.9342C28.487 38.2967 32.8091 42.6615 38.1192 42.6615ZM38.1192 27.4358C41.121 27.4358 43.5627 29.9028 43.5627 32.9342C43.5627 35.9657 41.121 38.4315 38.1192 38.4315C35.1174 38.4315 32.6745 35.9657 32.6745 32.9342C32.6745 29.9028 35.1174 27.4358 38.1192 27.4358Z" fill="#011414"/>
<path d="M58.3011 55.8174C52.9911 55.8174 48.6701 60.181 48.6701 65.5459C48.6701 70.9084 52.9911 75.272 58.3011 75.272C63.6124 75.272 67.9333 70.9084 67.9333 65.5459C67.9333 60.181 63.6124 55.8174 58.3011 55.8174ZM58.3011 71.042C55.2994 71.042 52.8588 68.575 52.8588 65.5459C52.8588 62.5133 55.3005 60.0475 58.3011 60.0475C61.3041 60.0475 63.7447 62.5145 63.7447 65.5459C63.7447 68.5762 61.3029 71.042 58.3011 71.042Z" fill="#011414"/>
</svg>
