<svg width="100" height="100" viewBox="0 0 100 100" fill="none" xmlns="http://www.w3.org/2000/svg">
<path d="M12.6779 1.24973L1.4684 11.4032C1.0222 11.8189 0.877754 12.6912 1.15313 13.307L4.51599 20.5595C4.82841 21.249 5.62196 21.4722 6.12736 21.0128L8.82467 18.4744V82.1152L6.12736 79.5769C5.38963 79.061 5.04908 79.4739 4.51599 79.9848L1.15313 87.2374C0.857563 87.8611 1.00437 88.7685 1.4684 89.1864L12.6779 99.34C13.1008 99.7344 13.7401 99.6739 14.1142 99.2037L18.598 93.4015C18.9366 92.1715 18.8935 91.6105 18.1776 90.9085H82.4223C81.6089 91.6874 81.8571 92.6336 82.002 93.4015L86.4858 99.2037C86.8598 99.6735 87.4991 99.7339 87.922 99.34L99.1316 89.1864C99.5956 88.7685 99.7424 87.8611 99.4468 87.2374L96.084 79.9848C95.4643 79.1798 95.1358 79.3166 94.4726 79.5769L91.7753 82.1152V18.4744L94.4726 21.0128C94.978 21.4722 95.7715 21.249 96.084 20.5595L99.4468 13.307C99.7222 12.6912 99.5778 11.8189 99.1316 11.4032L87.922 1.24973C87.2212 0.753827 86.8923 1.10327 86.4859 1.38602L82.002 7.18807C81.6635 8.4181 81.7065 8.9792 82.4224 9.68114H18.1777C18.9911 8.9022 18.743 7.95599 18.598 7.18807L14.1142 1.38602C13.5233 0.839224 13.2343 1.02005 12.6779 1.24973ZM13.1684 4.33196L16.0408 8.04892L5.77706 17.7038L3.60522 12.9897L13.1684 4.33196ZM87.4316 4.33196L96.9948 12.9897L94.8229 17.7038L84.5592 8.04892L87.4316 4.33196ZM15.095 12.5818H85.505L89.5334 16.344V84.2456L85.505 88.0079H15.095L11.0666 84.2456V16.344L15.095 12.5818ZM32.3647 21.2848V24.1859H68.2353V21.2848H32.3647ZM24.518 34.3393V37.2404H80.5658V34.3393H24.518ZM20.0342 45.9433V48.8443H80.5658V45.9433H20.0342ZM20.0342 57.5474V60.4482H80.5658V57.5474H20.0342ZM20.0342 69.1513V72.0523H49.179V69.1513H20.0342ZM57.0257 77.8544V80.7554H80.5658V77.8544H57.0257ZM5.77706 82.8405L16.0408 92.5408L13.1684 96.2576L3.57018 87.5999L5.77706 82.8405ZM94.8229 82.8405L97.0298 87.5999L87.4316 96.2576L84.5592 92.5408L94.8229 82.8405Z" fill="#011414"/>
<path fill-rule="evenodd" clip-rule="evenodd" d="M12.6464 0.990254C12.6723 0.979425 12.6982 0.968507 12.7239 0.957628C12.9458 0.863806 13.1609 0.772907 13.3791 0.767273C13.6515 0.760241 13.9134 0.880816 14.2315 1.1752L14.245 1.18769L18.7803 7.05627L18.7936 7.12672C18.8021 7.17196 18.8113 7.21896 18.8208 7.26751C18.8874 7.60906 18.9691 8.02714 18.948 8.44719C18.9314 8.78001 18.8517 9.11066 18.6702 9.42167H81.9068C81.7585 9.19723 81.6611 8.95808 81.6193 8.68246C81.5501 8.22616 81.6422 7.7198 81.8124 7.10128L81.8275 7.04626L86.3642 1.17581L86.3903 1.15767C86.4237 1.13446 86.4584 1.10911 86.4946 1.08273C86.6544 0.966233 86.8414 0.829932 87.0515 0.77212C87.3295 0.695627 87.6361 0.751464 88.0188 1.02225L88.0286 1.02915L99.2494 11.1929C99.7794 11.6867 99.9479 12.7059 99.6212 13.4366L99.6196 13.4402L96.2577 20.6904C96.2575 20.691 96.2572 20.6915 96.257 20.692C96.0678 21.1083 95.7395 21.3732 95.3935 21.4705C95.0472 21.5679 94.6628 21.5031 94.3567 21.2249L94.354 21.2224L91.9765 18.985V81.6046L94.3815 79.3414L94.4515 79.3139C94.7553 79.1944 95.0357 79.0842 95.3163 79.1234C95.6244 79.1665 95.902 79.3801 96.2268 79.8021L96.2441 79.8245L99.6185 87.1021C99.6188 87.1027 99.6191 87.1033 99.6194 87.104C99.9692 87.8443 99.7978 88.9029 99.2468 89.3991L88.0399 99.5503C88.0394 99.5507 88.039 99.5511 88.0386 99.5515C87.5364 100.018 86.7891 99.9468 86.3454 99.3895L86.3433 99.3868L81.8198 93.5333L81.8065 93.4629C81.7979 93.4176 81.7887 93.3706 81.7793 93.322C81.7126 92.9805 81.631 92.5624 81.652 92.1424C81.6687 91.8096 81.7483 91.479 81.9299 91.1679H18.6932C18.8415 91.3924 18.9389 91.6316 18.9807 91.9072C19.0499 92.3635 18.9579 92.8698 18.7876 93.4883L18.7725 93.5433L14.2567 99.3868L14.2546 99.3895C13.8109 99.9473 13.0634 100.018 12.5612 99.5513C12.5608 99.551 12.5604 99.5506 12.56 99.5502L1.35319 89.3991C1.35311 89.3991 1.35326 89.3992 1.35319 89.3991C0.80223 88.9027 0.630759 87.8436 0.980851 87.1033C0.981043 87.1029 0.981235 87.1025 0.981427 87.1021L4.36382 79.8074L4.39595 79.7766C4.4279 79.746 4.45987 79.7149 4.49194 79.6837C4.71134 79.4705 4.93491 79.2532 5.18254 79.1491C5.49151 79.0191 5.81874 79.0659 6.22329 79.3488L6.23512 79.357L8.62344 81.6046V18.985L6.24331 21.2249C5.93723 21.5031 5.5528 21.5679 5.20642 21.4705C4.86036 21.3732 4.53191 21.1081 4.34279 20.6916C4.34261 20.6912 4.34243 20.6908 4.34225 20.6904L0.978785 13.4367C0.652004 12.7059 0.820553 11.6867 1.35055 11.1929L1.35273 11.1909L12.6143 0.990254H12.6464ZM4.51599 20.5595C4.82841 21.249 5.62196 21.4722 6.12736 21.0128L8.82467 18.4744V82.1152L6.12736 79.5769C5.4362 79.0935 5.09366 79.4254 4.61479 79.8895C4.58253 79.9207 4.54964 79.9526 4.51599 79.9848L1.15313 87.2374C0.857563 87.8611 1.00437 88.7685 1.4684 89.1864L12.6779 99.34C13.1008 99.7344 13.7401 99.6739 14.1142 99.2037L18.598 93.4015C18.894 92.326 18.8983 91.762 18.4161 91.1679C18.3468 91.0826 18.2675 90.9966 18.1776 90.9085H82.4223C82.3339 90.9931 82.2581 91.0798 82.1932 91.1679C81.6989 91.8403 81.8469 92.6017 81.9739 93.2555C81.9835 93.3048 81.9929 93.3535 82.002 93.4015L86.4858 99.2037C86.8598 99.6735 87.4991 99.7339 87.922 99.34L99.1316 89.1864C99.5956 88.7685 99.7424 87.8611 99.4468 87.2374L96.084 79.9848C95.4689 79.1858 95.1407 79.3146 94.4873 79.5711L94.4726 79.5769L91.7753 82.1152V18.4744L94.4726 21.0128C94.978 21.4722 95.7715 21.249 96.084 20.5595L99.4468 13.307C99.7222 12.6912 99.5778 11.8189 99.1316 11.4032L87.922 1.24973C87.2907 0.803058 86.9612 1.04222 86.605 1.30073C86.5658 1.32922 86.5262 1.35795 86.4859 1.38602L82.002 7.18807C81.706 8.26358 81.7017 8.82767 82.1839 9.42167C82.2532 9.50701 82.3325 9.59296 82.4224 9.68114H18.1777C18.2661 9.59648 18.342 9.50984 18.4068 9.42167C18.9011 8.74931 18.7532 7.98785 18.6261 7.33402C18.6166 7.28473 18.6071 7.23605 18.598 7.18807L14.1142 1.38602C13.5642 0.877139 13.2759 0.998469 12.7901 1.20288C12.7539 1.21811 12.7165 1.2338 12.6779 1.24973L1.4684 11.4032C1.0222 11.8189 0.877754 12.6912 1.15313 13.307L4.51599 20.5595ZM32.1635 21.0253H68.4365V24.4453H32.1635V21.0253ZM24.3168 34.0799H80.767V37.4999H24.3168V34.0799ZM19.833 45.6839H80.767V49.1038H19.833V45.6839ZM19.833 57.2879H80.767V60.7077H19.833V57.2879ZM19.833 68.8919H49.3803V72.3118H19.833V68.8919ZM56.8245 77.5949H80.767V81.0149H56.8245V77.5949ZM13.1684 4.33196L3.60522 12.9897L5.77706 17.7038L16.0408 8.04892L13.1684 4.33196ZM15.7326 8.01767L13.1454 4.66981L3.87346 13.0639L5.83712 17.3261L15.7326 8.01767ZM87.4546 4.66981L84.8674 8.01768L94.7629 17.3261L96.7265 13.0639L87.4546 4.66981ZM96.9948 12.9897L87.4316 4.33196L84.5592 8.04892L94.8229 17.7038L96.9948 12.9897ZM15.1602 12.8412H85.4398L89.3322 16.4765V84.1131L85.4398 87.7485H15.1602L11.2678 84.1131V16.4765L15.1602 12.8412ZM11.0666 16.344V84.2456L15.095 88.0079H85.505L89.5334 84.2456V16.344L85.505 12.5818H15.095L11.0666 16.344ZM68.2353 24.1859V21.2848H32.3647V24.1859H68.2353ZM80.5658 37.2404V34.3393H24.518V37.2404H80.5658ZM80.5658 48.8443V45.9433H20.0342V48.8443H80.5658ZM80.5658 60.4482V57.5474H20.0342V60.4482H80.5658ZM20.0342 72.0523V69.1513H49.179V72.0523H20.0342ZM57.0257 80.7554V77.8544H80.5658V80.7554H57.0257ZM5.77706 82.8405L3.57018 87.5999L13.1684 96.2576L16.0408 92.5408L5.77706 82.8405ZM5.83636 83.2183L3.83902 87.5258L13.1452 95.9201L15.733 92.5715L5.83636 83.2183ZM94.8229 82.8405L84.5592 92.5408L87.4316 96.2576L97.0298 87.5999L94.8229 82.8405ZM94.7636 83.2183L84.867 92.5715L87.4548 95.9201L96.7609 87.5258L94.7636 83.2183Z" fill="#011414"/>
</svg>
