<svg width="33" height="32" viewBox="0 0 33 32" fill="none" xmlns="http://www.w3.org/2000/svg">
<path d="M27.6753 10.3425H18.7899C18.721 9.98206 18.5488 9.65444 18.3077 9.39234L25.7122 2.80706C25.9189 2.64325 25.9189 2.34838 25.7467 2.15181C25.5745 1.95523 25.2645 1.95523 25.0579 2.11904L17.5156 8.83537C17.2057 8.67156 16.8613 8.60603 16.5169 8.60603C16.2758 8.60603 16.0347 8.6388 15.7937 8.70432L12.4875 4.74005C12.3153 4.54348 12.0053 4.51071 11.7987 4.67453C11.592 4.83834 11.5576 5.1332 11.7298 5.32978L14.9327 9.19576C14.7605 9.35957 14.6227 9.52339 14.485 9.71996C14.3816 9.91654 14.2783 10.1131 14.2439 10.3425H5.35848C3.77426 10.3425 2.5 11.5547 2.5 13.0617V27.2807C2.5 28.7878 3.77426 30 5.35848 30H27.6409C29.2251 30 30.4993 28.7878 30.4993 27.2807V13.0617C30.5338 11.5547 29.2251 10.3425 27.6753 10.3425ZM24.0936 26.4944C24.0936 27.3135 23.3704 28.0015 22.5094 28.0015H6.18503C5.32404 28.0015 4.60081 27.3135 4.60081 26.4944V13.8808C4.60081 13.0617 5.32404 12.3737 6.18503 12.3737H22.5094C23.3704 12.3737 24.0936 13.0617 24.0936 13.8808V26.4944ZM27.262 21.0558C26.7454 21.0558 26.3322 20.6627 26.3322 20.1712C26.3322 19.6798 26.7454 19.2866 27.262 19.2866C27.7786 19.2866 28.1919 19.6798 28.1919 20.1712C28.1919 20.6627 27.7786 21.0558 27.262 21.0558ZM27.262 18.0417C26.7454 18.0417 26.3322 17.6485 26.3322 17.1571C26.3322 16.6656 26.7454 16.2725 27.262 16.2725C27.7786 16.2725 28.1919 16.6656 28.1919 17.1571C28.1919 17.6485 27.7786 18.0417 27.262 18.0417Z" fill="#808989"/>
</svg>
