<svg width="19" height="19" viewBox="0 0 19 19" fill="none" xmlns="http://www.w3.org/2000/svg">
<path d="M9.14286 2.17143C10.4686 2.17143 11.5429 3.24571 11.5429 4.57143C11.5429 5.89714 10.4686 6.97143 9.14286 6.97143C7.81714 6.97143 6.74286 5.89714 6.74286 4.57143C6.74286 3.24571 7.81714 2.17143 9.14286 2.17143ZM9.14286 12.4571C12.5371 12.4571 16.1143 14.1257 16.1143 14.8571V16.1143H2.17143V14.8571C2.17143 14.1257 5.74857 12.4571 9.14286 12.4571ZM9.14286 0C6.61714 0 4.57143 2.04571 4.57143 4.57143C4.57143 7.09714 6.61714 9.14286 9.14286 9.14286C11.6686 9.14286 13.7143 7.09714 13.7143 4.57143C13.7143 2.04571 11.6686 0 9.14286 0ZM9.14286 10.2857C6.09143 10.2857 0 11.8171 0 14.8571V18.2857H18.2857V14.8571C18.2857 11.8171 12.1943 10.2857 9.14286 10.2857Z" fill="#011414"/>
</svg>
