<svg width="33" height="33" viewBox="0 0 33 33" fill="none" xmlns="http://www.w3.org/2000/svg">
<path fill-rule="evenodd" clip-rule="evenodd" d="M19.5354 2.5C18.4514 2.5 17.4066 2.93426 16.6401 3.70071L2.35085 17.9814C1.21624 19.116 1.21624 20.9769 2.35085 22.1115L9.58063 29.3328C10.7152 30.4674 12.5676 30.4674 13.7022 29.3328L27.9914 15.0435C28.758 14.2771 29.1921 13.2407 29.1922 12.1567V3.07907C29.1924 3.00294 29.1777 2.92751 29.1487 2.85713C29.1197 2.78674 29.077 2.72281 29.0232 2.66899C28.9694 2.61516 28.9054 2.57251 28.835 2.54351C28.7646 2.51452 28.6892 2.49971 28.6131 2.5H19.5354ZM19.5354 3.64962H28.034V12.1567C28.034 12.9353 27.7244 13.6841 27.1739 14.2346L12.8847 28.5153C12.1909 29.2091 11.0834 29.2091 10.3896 28.5153L3.16835 21.294C2.47459 20.6003 2.47459 19.4927 3.16835 18.7989L17.4576 4.5097C18.0081 3.9592 18.7569 3.64962 19.5354 3.64962Z" fill="#808989"/>
<path d="M22.2708 6.54605C21.4857 7.33103 21.4857 8.62233 22.2708 9.40731C23.0558 10.1923 24.3471 10.1924 25.132 9.40731C25.9169 8.62233 25.9169 7.33098 25.132 6.54605C24.3471 5.76107 23.0558 5.76116 22.2708 6.54605ZM23.0883 7.36355C23.4324 7.01955 23.9704 7.01955 24.3145 7.36355C24.6586 7.70756 24.6586 8.25423 24.3145 8.59832C23.9704 8.94232 23.4324 8.94232 23.0883 8.59832C22.7441 8.25432 22.7441 7.70769 23.0883 7.36355Z" fill="#808989"/>
<path fill-rule="evenodd" clip-rule="evenodd" d="M24.8668 7.40501V8.55462H31.5005V7.40501H24.8668Z" fill="#808989"/>
<path d="M16.8036 13.5535C15.7445 12.8729 14.3448 12.9702 13.7039 13.9708C13.063 14.9716 13.4412 16.3133 14.3852 17.1556L14.3511 17.112C14.7936 17.5923 14.813 18.3143 14.6406 18.6448C14.3871 19.0228 13.8126 19.1417 13.1589 18.7214C12.4977 18.2959 12.2019 17.4792 12.367 17.0014C12.3955 16.9289 12.4091 16.8514 12.4069 16.7735C12.4047 16.6956 12.3868 16.619 12.3541 16.5482C12.3215 16.4774 12.2749 16.4139 12.2171 16.3617C12.1593 16.3094 12.0915 16.2695 12.0178 16.2442C11.9441 16.2188 11.866 16.2087 11.7883 16.2144C11.7106 16.22 11.6348 16.2414 11.5656 16.2772C11.4964 16.3129 11.4351 16.3624 11.3855 16.4225C11.3359 16.4825 11.299 16.5521 11.277 16.6268C10.8877 17.7535 11.4784 19.0113 12.5373 19.6925C13.5963 20.3735 14.9962 20.2675 15.637 19.2664C15.64 19.2578 15.6428 19.2491 15.6455 19.2403C16.1386 18.3704 15.9789 17.1799 15.1941 16.328C15.1833 16.3159 15.1719 16.3043 15.1601 16.2931C14.5589 15.7567 14.426 14.9784 14.6747 14.59C14.9234 14.2015 15.5205 14.0967 16.182 14.5219C16.8431 14.9474 17.139 15.7558 16.9739 16.2335C16.9453 16.306 16.9317 16.3836 16.9339 16.4614C16.9361 16.5393 16.9541 16.616 16.9867 16.6867C17.0194 16.7575 17.066 16.8209 17.1238 16.8731C17.1816 16.9254 17.2494 16.9654 17.3231 16.9907C17.3968 17.0161 17.4748 17.0262 17.5526 17.0206C17.6303 17.0149 17.706 16.9935 17.7753 16.9578C17.8445 16.922 17.9058 16.8725 17.9554 16.8125C18.005 16.7524 18.0419 16.6828 18.0639 16.6081C18.4531 15.4814 17.8624 14.2322 16.8036 13.551L16.8036 13.5535Z" fill="#808989"/>
<path d="M12.1571 18.4932C12.0306 18.5116 11.9138 18.5716 11.825 18.6636L10.6073 19.8814C10.547 19.9334 10.4982 19.9972 10.4638 20.069C10.4295 20.1408 10.4103 20.219 10.4076 20.2985C10.4049 20.378 10.4186 20.4573 10.448 20.5312C10.4774 20.6052 10.5218 20.6722 10.5784 20.7282C10.6349 20.7841 10.7024 20.8278 10.7767 20.8564C10.851 20.885 10.9303 20.898 11.0098 20.8945C11.0893 20.8909 11.1672 20.8709 11.2386 20.8358C11.3101 20.8007 11.3734 20.7512 11.4248 20.6904L12.634 19.4811C12.7218 19.3969 12.7807 19.2871 12.8023 19.1673C12.8238 19.0475 12.807 18.9239 12.754 18.8143C12.7011 18.7046 12.6149 18.6146 12.5077 18.5569C12.4004 18.4993 12.2777 18.4769 12.1571 18.4932Z" fill="#808989"/>
<path d="M18.3356 12.37C18.1839 12.3746 18.0401 12.4389 17.9354 12.5489L16.7261 13.7581C16.6653 13.8094 16.6158 13.8728 16.5807 13.9442C16.5456 14.0156 16.5256 14.0935 16.5221 14.173C16.5185 14.2525 16.5314 14.3319 16.5601 14.4062C16.5887 14.4805 16.6323 14.5479 16.6883 14.6045C16.7443 14.661 16.8114 14.7055 16.8853 14.7349C16.9593 14.7642 17.0385 14.778 17.1181 14.7753C17.1976 14.7726 17.2757 14.7534 17.3475 14.719C17.4193 14.6847 17.4832 14.6358 17.5351 14.5756L18.7529 13.3664C18.8383 13.2859 18.8972 13.1812 18.9216 13.0663C18.946 12.9515 18.9347 12.832 18.8894 12.7237C18.844 12.6154 18.7667 12.5234 18.6678 12.4603C18.5688 12.3971 18.4529 12.3656 18.3356 12.37Z" fill="#808989"/>
<path fill-rule="evenodd" clip-rule="evenodd" d="M2.35085 22.1115C1.21624 20.9769 1.21624 19.116 2.35085 17.9814L16.6401 3.70071C17.4066 2.93426 18.4514 2.5 19.5354 2.5H28.6131C28.6892 2.49971 28.7646 2.51452 28.835 2.54351C28.9054 2.57251 28.9694 2.61516 29.0232 2.66899C29.077 2.72281 29.1197 2.78674 29.1487 2.85713C29.1777 2.92751 29.1924 3.00294 29.1922 3.07907V7.40501H31.5005V8.55462H29.1922V12.1567C29.1921 13.2407 28.758 14.2771 27.9914 15.0435L13.7022 29.3328C12.5676 30.4674 10.7152 30.4674 9.58063 29.3328L2.35085 22.1115ZM28.034 7.40501V3.64962H19.5354C18.7569 3.64962 18.0081 3.9592 17.4576 4.5097L3.16835 18.7989C2.47459 19.4927 2.47459 20.6003 3.16835 21.294L10.3896 28.5153C11.0834 29.2091 12.1909 29.2091 12.8847 28.5153L27.1739 14.2346C27.7244 13.6841 28.034 12.9353 28.034 12.1567V8.55462H25.6377C25.5865 8.7288 25.5116 8.89724 25.413 9.05462C25.3344 9.18011 25.2407 9.29856 25.132 9.40731C24.3471 10.1924 23.0558 10.1923 22.2708 9.40731C21.4857 8.62233 21.4857 7.33103 22.2708 6.54605C23.0558 5.76116 24.3471 5.76107 25.132 6.54605C25.2426 6.6566 25.3375 6.7772 25.4169 6.90501C25.5148 7.06249 25.589 7.23092 25.6395 7.40501H28.034ZM24.3668 7.42048C24.3504 7.40097 24.3329 7.38197 24.3145 7.36355C23.9704 7.01955 23.4324 7.01955 23.0883 7.36355C22.7441 7.70769 22.7441 8.25432 23.0883 8.59832C23.4324 8.94232 23.9704 8.94232 24.3145 8.59832C24.3329 8.5799 24.3504 8.5609 24.3668 8.54138C24.6412 8.2158 24.6412 7.74599 24.3668 7.42048ZM23.961 8.24478C24.1098 8.09591 24.1097 7.86585 23.961 7.71714C23.8122 7.56835 23.5906 7.56834 23.4417 7.71717C23.2929 7.86607 23.293 8.096 23.4417 8.24469C23.5906 8.39352 23.8121 8.39351 23.961 8.24478ZM25.9845 6.90501C25.8642 6.64657 25.6979 6.40482 25.4856 6.19251C24.5054 5.21222 22.8974 5.21239 21.9172 6.19247C20.9369 7.17273 20.9369 8.78064 21.9172 9.76087C22.8975 10.7411 24.5054 10.7412 25.4856 9.76083C25.6961 9.55025 25.8615 9.3107 25.9816 9.05462H27.534V12.1567C27.534 12.8029 27.277 13.4244 26.8205 13.8809L12.5313 28.1616C12.0328 28.6601 11.2417 28.6602 10.7432 28.1617L3.5219 20.9405C3.0234 20.442 3.0234 19.651 3.52191 19.1525L17.8112 4.86325C18.2677 4.40671 18.8892 4.14962 19.5354 4.14962H27.534V6.90501H25.9845ZM29.6922 9.05462V12.1568C29.6921 13.3749 29.2042 14.5379 28.345 15.3971L14.0558 29.6863C12.7259 31.0162 10.5569 31.0162 9.22708 29.6863L1.99751 22.4653C0.667637 21.1354 0.667429 18.9578 1.9973 17.6279L16.2866 3.34714C17.1465 2.48733 18.3183 2 19.5354 2H28.6123M29.6922 9.05462H32.0005V6.90501H29.6922V3.07982M13.7039 13.9708C14.248 13.1213 15.339 12.9229 16.3043 13.2988C16.3454 13.3149 16.3864 13.3319 16.4271 13.3501C16.5546 13.4069 16.6793 13.4739 16.7996 13.551L16.8036 13.5535L16.8036 13.551L16.8047 13.5517L16.8075 13.5535C16.8325 13.5696 16.8571 13.586 16.8815 13.6027L17.9354 12.5489C18.0401 12.4389 18.1839 12.3746 18.3356 12.37C18.4529 12.3656 18.5688 12.3971 18.6678 12.4603C18.7667 12.5234 18.844 12.6154 18.8894 12.7237C18.9347 12.832 18.946 12.9515 18.9216 13.0663C18.8972 13.1812 18.8383 13.2859 18.7529 13.3664L17.6991 14.4128C17.7986 14.5566 17.8844 14.7074 17.955 14.8633C18.2048 15.4144 18.2645 16.0275 18.0639 16.6081C18.0419 16.6828 18.005 16.7524 17.9554 16.8125C17.9058 16.8725 17.8445 16.922 17.7753 16.9578C17.706 16.9935 17.6303 17.0149 17.5526 17.0206C17.4748 17.0262 17.3968 17.0161 17.3231 16.9907C17.2494 16.9654 17.1816 16.9254 17.1238 16.8731C17.066 16.8209 17.0194 16.7575 16.9867 16.6867C16.9541 16.616 16.9361 16.5393 16.9339 16.4614C16.9317 16.3836 16.9453 16.306 16.9739 16.2335C17.0666 15.9653 17.014 15.5928 16.833 15.2424C16.8063 15.1907 16.7768 15.1395 16.7445 15.0892C16.6765 14.983 16.5964 14.8808 16.5045 14.7864C16.417 14.6964 16.319 14.6134 16.2107 14.5408C16.2012 14.5344 16.1916 14.5281 16.182 14.5219C16.1375 14.4933 16.0934 14.4672 16.0496 14.4433C15.4418 14.1121 14.9067 14.2276 14.6747 14.59C14.426 14.9784 14.5589 15.7567 15.1601 16.2931C15.1719 16.3043 15.1833 16.3159 15.1941 16.328C15.9789 17.1799 16.1386 18.3704 15.6455 19.2403C15.6428 19.2491 15.64 19.2578 15.637 19.2664C15.0714 20.1499 13.9145 20.3363 12.9226 19.8996C12.7907 19.8416 12.6616 19.7724 12.5373 19.6925C12.5141 19.6775 12.4911 19.6623 12.4683 19.6468L11.4248 20.6904C11.3734 20.7512 11.3101 20.8007 11.2386 20.8358C11.1672 20.8709 11.0893 20.8909 11.0098 20.8945C10.9303 20.898 10.851 20.885 10.7767 20.8564C10.7024 20.8278 10.6349 20.7841 10.5784 20.7282C10.5218 20.6722 10.4774 20.6052 10.448 20.5312C10.4186 20.4573 10.4049 20.378 10.4076 20.2985C10.4103 20.219 10.4295 20.1408 10.4638 20.069C10.4982 19.9972 10.547 19.9334 10.6073 19.8814L11.6493 18.8394C11.5495 18.6959 11.4632 18.5453 11.3919 18.3896C11.137 17.8328 11.0748 17.2121 11.277 16.6268C11.299 16.5521 11.3359 16.4825 11.3855 16.4225C11.4351 16.3624 11.4964 16.3129 11.5656 16.2772C11.6348 16.2414 11.7106 16.22 11.7883 16.2144C11.866 16.2087 11.9441 16.2188 12.0178 16.2442C12.0915 16.2695 12.1593 16.3094 12.2171 16.3617C12.2749 16.4139 12.3215 16.4774 12.3541 16.5482C12.3868 16.619 12.4047 16.6956 12.4069 16.7735C12.4091 16.8514 12.3955 16.9289 12.367 17.0014C12.2716 17.2773 12.33 17.6663 12.5237 18.0277C12.5657 18.106 12.6141 18.1831 12.6686 18.2575C12.7783 18.407 12.913 18.5454 13.0712 18.6612C13.0997 18.682 13.1289 18.7021 13.1589 18.7214C13.1983 18.7467 13.2374 18.7701 13.2761 18.7915C13.8806 19.1265 14.4024 19 14.6406 18.6448C14.8041 18.3313 14.7951 17.6656 14.4161 17.188C14.4069 17.1764 14.3975 17.1649 14.3878 17.1535C14.3761 17.1396 14.3635 17.1255 14.3511 17.112L14.3852 17.1556C14.3714 17.1433 14.3577 17.1309 14.3441 17.1184C14.3392 17.1138 14.3337 17.1087 14.3288 17.1041C13.4263 16.2593 13.0759 14.9514 13.7039 13.9708ZM14.0369 17.5149C12.9845 16.5648 12.4717 14.9677 13.2829 13.7011C13.9557 12.6505 15.2118 12.4205 16.3057 12.7712L16.306 12.6363L16.814 12.9631L17.5782 12.1989C17.7727 11.9974 18.0382 11.8793 18.3186 11.8703C18.5368 11.8625 18.7525 11.9211 18.9368 12.0388C19.1217 12.1569 19.266 12.3286 19.3506 12.5306C19.4352 12.7327 19.4562 12.9558 19.4107 13.1702C19.3657 13.3821 19.2578 13.5755 19.1012 13.7251L18.3293 14.4916C18.6909 15.1809 18.806 15.9817 18.5399 16.7615C18.4984 16.8964 18.4309 17.0219 18.3409 17.1308C18.2484 17.2429 18.1341 17.3352 18.0047 17.402C17.8755 17.4687 17.7341 17.5086 17.589 17.5192C17.4438 17.5298 17.2981 17.5108 17.1606 17.4636C17.0228 17.4163 16.8963 17.3414 16.7886 17.2441C16.6806 17.1466 16.5936 17.0282 16.5327 16.8961C16.4718 16.764 16.4382 16.621 16.4341 16.4756C16.4302 16.3353 16.4537 16.1957 16.5032 16.0645C16.53 15.979 16.5316 15.7947 16.4287 15.5563C16.3284 15.3239 16.151 15.0965 15.9114 14.9423C15.6514 14.7753 15.4448 14.7384 15.3145 14.7492C15.1894 14.7594 15.127 14.8108 15.0958 14.8596C15.0696 14.9005 15.0272 15.038 15.0838 15.2651C15.137 15.4784 15.2677 15.719 15.493 15.9201L15.5029 15.9289C15.5239 15.9487 15.5442 15.9696 15.5638 15.9914C16.4626 16.9687 16.6874 18.3665 16.1051 19.4424L16.0894 19.4871L16.0581 19.536C15.2841 20.7452 13.7344 20.8774 12.548 20.2743L11.7909 21.0314C11.698 21.1364 11.5854 21.2225 11.4593 21.2845C11.3262 21.3499 11.1808 21.3873 11.0321 21.394C10.8835 21.4006 10.7353 21.3763 10.5969 21.323C10.4583 21.2696 10.3322 21.188 10.2267 21.0836C10.1212 20.9792 10.0383 20.8541 9.98338 20.7159C9.92852 20.5778 9.90282 20.4299 9.90789 20.2814C9.91295 20.1331 9.94865 19.9872 10.0128 19.8531C10.074 19.7254 10.1596 19.6112 10.2647 19.5168L11.019 18.7626C10.6514 18.0676 10.5331 17.2582 10.801 16.4734C10.8424 16.3385 10.91 16.213 10.9999 16.1041C11.0925 15.9921 11.2068 15.8997 11.3362 15.8329C11.4654 15.7662 11.6068 15.7263 11.7519 15.7157C11.8971 15.7051 12.0428 15.7241 12.1802 15.7713C12.3176 15.8185 12.4442 15.893 12.5523 15.9907C12.6605 16.0884 12.7474 16.207 12.8082 16.3388C12.8691 16.4709 12.9026 16.6139 12.9067 16.7593C12.9107 16.8996 12.8872 17.0393 12.8376 17.1704C12.8108 17.256 12.8091 17.4427 12.9126 17.684C13.0133 17.9189 13.191 18.1474 13.4293 18.3009M14.0369 17.5149C14.1436 17.656 14.2072 17.8286 14.231 18.0024C14.2564 18.1875 14.2308 18.3258 14.2075 18.3898C14.1672 18.4365 14.1031 18.4751 14.0025 18.4847C13.8807 18.4963 13.6839 18.4645 13.4293 18.3009" fill="#808989"/>
</svg>
