<svg width="99" height="99" viewBox="0 0 99 99" fill="none" xmlns="http://www.w3.org/2000/svg">
<path d="M28.6875 65.025C27.7208 65.025 26.7759 65.3116 25.9721 65.8487C25.1684 66.3857 24.542 67.149 24.172 68.0421C23.8021 68.9352 23.7053 69.9179 23.8939 70.866C24.0825 71.8141 24.548 72.6849 25.2315 73.3685C25.915 74.052 26.7859 74.5175 27.734 74.7061C28.6821 74.8947 29.6648 74.7979 30.5579 74.428C31.4509 74.058 32.2143 73.4316 32.7513 72.6278C33.2884 71.8241 33.575 70.8792 33.575 69.9125C33.5732 68.6168 33.0577 67.3747 32.1415 66.4585C31.2253 65.5423 29.9832 65.0268 28.6875 65.025ZM28.6875 71.4C28.3933 71.4 28.1057 71.3128 27.8611 71.1493C27.6165 70.9859 27.4258 70.7535 27.3132 70.4817C27.2006 70.2099 27.1712 69.9108 27.2286 69.6223C27.286 69.3337 27.4276 69.0687 27.6357 68.8607C27.8437 68.6526 28.1088 68.511 28.3973 68.4536C28.6859 68.3962 28.9849 68.4256 29.2567 68.5382C29.5285 68.6508 29.7609 68.8415 29.9243 69.0861C30.0878 69.3307 30.175 69.6183 30.175 69.9125C30.1741 70.3067 30.0171 70.6846 29.7383 70.9633C29.4596 71.2421 29.0817 71.3991 28.6875 71.4Z" fill="#011414"/>
<path d="M28.6875 52.275V55.675C32.4623 55.679 36.0813 57.1804 38.7505 59.8495C41.4196 62.5187 42.9209 66.1377 42.925 69.9125H46.325C46.32 65.2363 44.4602 60.753 41.1536 57.4464C37.847 54.1398 33.3637 52.2799 28.6875 52.275Z" fill="#011414"/>
<path d="M28.6875 36.3375V39.7375C36.6876 39.7465 44.3575 42.9285 50.0145 48.5855C55.6715 54.2424 58.8535 61.9123 58.8625 69.9125H62.2625C62.2526 61.0109 58.7121 52.4767 52.4177 46.1823C46.1233 39.8879 37.5891 36.3474 28.6875 36.3375Z" fill="#011414"/>
<path d="M28.6875 20.4V23.8C40.9131 23.8135 52.6342 28.6761 61.279 37.3209C69.9239 45.9658 74.7865 57.6868 74.8 69.9125H78.2C78.1856 56.7854 72.9645 44.2001 63.6822 34.9178C54.3999 25.6355 41.8146 20.4144 28.6875 20.4Z" fill="#011414"/>
<path d="M49.3 0C39.5494 0 30.0177 2.89139 21.9104 8.30855C13.8031 13.7257 7.48416 21.4253 3.75276 30.4337C0.0213611 39.4421 -0.954943 49.3547 0.947308 58.9179C2.84956 68.4812 7.54493 77.2656 14.4397 84.1604C21.3344 91.0551 30.1188 95.7505 39.6821 97.6527C49.2453 99.555 59.1579 98.5787 68.1663 94.8473C77.1747 91.1159 84.8743 84.797 90.2915 76.6896C95.7086 68.5823 98.6 59.0506 98.6 49.3C98.5852 36.2294 93.3863 23.6984 84.144 14.456C74.9016 5.21371 62.3706 0.0148481 49.3 0ZM49.3 95.2C40.2219 95.2 31.3476 92.508 23.7993 87.4644C16.2511 82.4209 10.368 75.2523 6.89395 66.8652C3.41989 58.478 2.51092 49.2491 4.28198 40.3453C6.05304 31.4416 10.4246 23.263 16.8438 16.8438C23.2631 10.4246 31.4416 6.05302 40.3454 4.28196C49.2491 2.51089 58.4781 3.41987 66.8652 6.89393C75.2523 10.368 82.4209 16.2511 87.4645 23.7993C92.508 31.3475 95.2 40.2218 95.2 49.3C95.1865 61.4693 90.3463 73.1363 81.7413 81.7413C73.1363 90.3463 61.4693 95.1865 49.3 95.2Z" fill="#011414"/>
</svg>
