<svg width="33" height="32" viewBox="0 0 33 32" fill="none" xmlns="http://www.w3.org/2000/svg">
<path d="M24.451 12.8053L24.451 12.8052C24.5489 12.3213 24.5976 11.868 24.5976 11.4198C24.5976 7.76893 21.6255 4.79811 17.9745 4.79811C14.8197 4.79811 12.0918 7.03571 11.4868 10.1186C11.3951 10.59 10.9867 10.911 10.4904 10.8843L10.4884 10.8842L10.4884 10.8842C10.2967 10.87 10.108 10.8561 9.92123 10.8561C6.27029 10.8561 3.29811 13.827 3.29811 17.4778C3.29811 21.1273 6.26889 24.0981 9.9184 24.0995C9.91841 24.0995 9.91842 24.0995 9.91843 24.0995H9.91981H11.8585C12.3821 24.0995 12.8075 24.525 12.8075 25.0486C12.8075 25.5722 12.3821 25.9976 11.8585 25.9976H9.92406H9.92404H9.92402H9.92401H9.92399H9.92397H9.92396H9.92394H9.92392H9.92391H9.92389H9.92387H9.92386H9.92384H9.92382H9.92381H9.92379H9.92377H9.92376H9.92374H9.92373H9.92371H9.92369H9.92368H9.92366H9.92364H9.92363H9.92361H9.92359H9.92358H9.92356H9.92354H9.92353H9.92351H9.9235H9.92348H9.92346H9.92345H9.92343H9.92341H9.9234H9.92338H9.92337H9.92335H9.92333H9.92332H9.9233H9.92329H9.92327H9.92325H9.92324H9.92322H9.92321H9.92319H9.92317H9.92316H9.92314H9.92313H9.92311H9.92309H9.92308H9.92306H9.92305H9.92303H9.92302H9.923H9.92299H9.92297H9.92295H9.92294H9.92292H9.92291H9.92289H9.92288H9.92286H9.92285H9.92283H9.92281H9.9228H9.92278H9.92276H9.92274H9.92272H9.92271H9.92268H9.92266H9.92265H9.92263H9.9226H9.92258H9.92256H9.92254H9.92252H9.9225H9.92247H9.92245H9.92243H9.92241H9.92239H9.92237H9.92235H9.92233H9.92231H9.92229H9.92227H9.92225H9.92223H9.92221H9.92219H9.92217H9.92215H9.92214H9.92212H9.9221H9.92208H9.92206H9.92204H9.92202H9.92201H9.92199H9.92197H9.92195H9.92194H9.92192H9.9219H9.92189H9.92187H9.92185H9.92184H9.92182H9.9218H9.92179H9.92177H9.92176H9.92174H9.92173H9.92171H9.92169H9.92167H9.92166H9.92164H9.92162H9.9216H9.92158H9.92157H9.92155H9.92153H9.92152H9.9215H9.92148H9.92147H9.92145H9.92143H9.92142H9.9214H9.92139H9.92137H9.92135H9.92134H9.92132H9.9213H9.92129H9.92127H9.92126H9.92124H9.92123C5.22167 25.9976 1.4 22.176 1.4 17.4778C1.4 12.8132 5.16841 9.01151 9.82222 8.95715C10.8865 5.4021 14.1938 2.9 17.9759 2.9C22.6741 2.9 26.4958 6.72166 26.4958 11.4198C26.4958 11.6925 26.4828 11.9665 26.4558 12.2437C29.4464 13.0605 31.6 15.8084 31.6 18.992C31.6 22.8552 28.459 25.9976 24.5943 25.9976H24.5943H24.5943H24.5943H24.5943H24.5943H24.5942H24.5942H24.5942H24.5942H24.5942H24.5942H24.5941H24.5941H24.5941H24.5941H24.5941H24.5941H24.594H24.594H24.594H24.594H24.594H24.594H24.5939H24.5939H24.5939H24.5939H24.5939H24.5939H24.5938H24.5938H24.5938H24.5938H24.5938H24.5938H24.5937H24.5937H24.5937H24.5937H24.5937H24.5937H24.5936H24.5936H24.5936H24.5936H24.5936H24.5936H24.5936H24.5935H24.5935H24.5935H24.5935H24.5935H24.5935H24.5934H24.5934H24.5934H24.5934H24.5934H24.5934H24.5933H24.5933H24.5933H24.5933H24.5933H24.5933H24.5933H24.5932H24.5932H24.5932H24.5932H24.5932H24.5932H24.5931H24.5931H24.5931H24.5931H24.5931H24.5931H24.593H24.593H24.593H24.593H24.593H24.593H24.593H24.5929H24.5929H24.5929H24.5929H24.5929H24.5928H24.5928H24.5928H24.5928H24.5928H24.5927H24.5927H24.5927H24.5927H24.5927H24.5926H24.5926H24.5926H24.5926H24.5926H24.5925H24.5925H24.5925H24.5925H24.5925H24.5924H24.5924H24.5924H24.5924H24.5924H24.5924H24.5923H24.5923H24.5923H24.5923H24.5923H24.5922H24.5922H24.5922H24.5922H24.5922H24.5922H24.5921H24.5921H24.5921H24.5921H24.5921H24.5921H24.592H24.592H24.592H24.592H24.592H24.592H24.5919H24.5919H24.5919H24.5919H24.5919H24.5919H24.5918H24.5918H24.5918H24.5918H24.5918H24.5918H24.5917H24.5917H24.5917H24.5917H24.5917H24.5917H24.5916H24.5916H24.5916H24.5916H24.5916H24.5916H24.5916H24.5915H24.5915H24.5915H21.1415C20.6179 25.9976 20.1925 25.5722 20.1925 25.0486C20.1925 24.525 20.6179 24.0995 21.1415 24.0995H24.5929H24.5957C27.4118 24.0981 29.7019 21.808 29.7019 18.992C29.7019 16.4312 27.7919 14.2579 25.2624 13.9374C25.2624 13.9374 25.2624 13.9374 25.2624 13.9374L25.275 13.8382C25.0401 13.8085 24.8292 13.6825 24.692 13.4901L24.451 12.8053ZM24.451 12.8053C24.3989 13.0642 24.4557 13.333 24.6106 13.5482L24.451 12.8053ZM20.7086 20.8714L20.7084 20.8713L17.1713 17.3342C17.1712 17.3341 17.1711 17.334 17.171 17.3338C17.0834 17.2447 16.9773 17.1752 16.8626 17.128C16.6313 17.0313 16.3701 17.0315 16.1376 17.1279L16.1373 17.128C16.021 17.1768 15.9166 17.2462 15.8293 17.3335L12.2916 20.8713C11.9213 21.2415 11.9215 21.8425 12.2914 22.214C12.6619 22.586 13.2615 22.584 13.6328 22.2143L13.633 22.2141L15.5524 20.296V29.0519C15.5524 29.577 15.9779 30.0009 16.5014 30.0009C17.025 30.0009 17.4505 29.5755 17.4505 29.0519V20.296L19.3699 22.2141C19.3699 22.2141 19.3699 22.2141 19.3699 22.2141C19.5549 22.3991 19.7985 22.4925 20.0406 22.4925C20.2826 22.4925 20.5263 22.3991 20.7113 22.2141L20.7116 22.2138C21.0787 21.8436 21.0784 21.2429 20.7086 20.8714Z" fill="#808989" stroke="#808989" stroke-width="0.2"/>
</svg>
