<svg width="20" height="19" viewBox="0 0 20 19" fill="none" xmlns="http://www.w3.org/2000/svg">
<path d="M17.0638 7.59997L18.2428 5.21125C18.2792 5.13744 18.2968 5.05579 18.2941 4.97354C18.2914 4.89129 18.2684 4.81098 18.2273 4.73972C18.1861 4.66846 18.1281 4.60846 18.0582 4.56503C17.9884 4.5216 17.9089 4.49608 17.8268 4.49073L15.1708 4.31861L14.9988 1.6607C14.9935 1.57844 14.9681 1.49876 14.9246 1.42873C14.8811 1.35871 14.8211 1.30052 14.7497 1.25933C14.6784 1.21813 14.598 1.19521 14.5156 1.19261C14.4333 1.19001 14.3516 1.20779 14.2778 1.2444L11.8928 2.42525L10.4158 0.20865C10.2298 -0.0695501 9.76982 -0.0695501 9.58382 0.20865L8.10682 2.42525L5.72182 1.2444C5.64801 1.20779 5.56632 1.19001 5.48399 1.19261C5.40167 1.19521 5.32126 1.21813 5.24991 1.25933C5.17857 1.30052 5.1185 1.35871 5.07504 1.42873C5.03158 1.49876 5.00609 1.57844 5.00081 1.6607L4.82982 4.31861L2.17281 4.48973C2.09062 4.49501 2.01099 4.52052 1.94102 4.56401C1.87105 4.6075 1.8129 4.66761 1.77173 4.73901C1.73057 4.81041 1.70767 4.89087 1.70506 4.97326C1.70246 5.05564 1.72024 5.1374 1.75681 5.21125L2.93581 7.59897L0.721814 9.07704C0.653545 9.12289 0.597602 9.18484 0.558918 9.25745C0.520234 9.33005 0.5 9.41106 0.5 9.49334C0.5 9.57561 0.520234 9.65663 0.558918 9.72923C0.597602 9.80183 0.653545 9.86379 0.721814 9.90964L2.93681 11.3877L1.75681 13.7754C1.71993 13.8492 1.70192 13.9309 1.70439 14.0134C1.70686 14.0958 1.72973 14.1764 1.77096 14.2478C1.81219 14.3192 1.87049 14.3792 1.94062 14.4225C2.01076 14.4659 2.09054 14.4911 2.17281 14.4959L4.82881 14.6671L4.99982 17.326C5.00509 17.4082 5.03058 17.4879 5.07404 17.5579C5.1175 17.628 5.17757 17.6862 5.24891 17.7274C5.32026 17.7685 5.40067 17.7915 5.48299 17.7941C5.56532 17.7967 5.64701 17.7789 5.72082 17.7423L8.10682 16.5624L9.58382 18.778C9.62963 18.8463 9.69155 18.9023 9.7641 18.941C9.83665 18.9797 9.9176 19 9.99982 19C10.082 19 10.163 18.9797 10.2355 18.941C10.3081 18.9023 10.37 18.8463 10.4158 18.778L11.8928 16.5624L14.2788 17.7423C14.3526 17.7789 14.4343 17.7967 14.5166 17.7941C14.599 17.7915 14.6794 17.7685 14.7507 17.7274C14.8221 17.6862 14.8821 17.628 14.9256 17.5579C14.969 17.4879 14.9945 17.4082 14.9998 17.326L15.1708 14.6681L17.8268 14.4959C17.909 14.4907 17.9886 14.4651 18.0586 14.4217C18.1286 14.3782 18.1867 14.3181 18.2279 14.2467C18.2691 14.1753 18.292 14.0948 18.2946 14.0124C18.2972 13.93 18.2794 13.8483 18.2428 13.7744L17.0638 11.3877L19.2778 9.90864C19.3461 9.86279 19.402 9.80083 19.4407 9.72823C19.4794 9.65563 19.4996 9.57461 19.4996 9.49234C19.4996 9.41006 19.4794 9.32905 19.4407 9.25645C19.402 9.18385 19.3461 9.12189 19.2778 9.07604L17.0638 7.59997Z" fill="white"/>
<path d="M6.29963 8.31998H4.59863V7.20398H9.44963V8.31998H7.74863V13H6.29963V8.31998Z" fill="#011414"/>
<path d="M10.0036 7.20398H11.2456L13.7116 10.669V7.20398H15.1696V13H13.9186L11.4526 9.54398V13H10.0036V7.20398Z" fill="#011414"/>
</svg>
