<svg width="32" height="32" viewBox="0 0 32 32" fill="none" xmlns="http://www.w3.org/2000/svg">
<path d="M27.1753 10.3425H18.2899C18.221 9.98206 18.0488 9.65444 17.8077 9.39234L25.2122 2.80706C25.4189 2.64325 25.4189 2.34838 25.2467 2.15181C25.0745 1.95523 24.7645 1.95523 24.5579 2.11904L17.0156 8.83537C16.7057 8.67156 16.3613 8.60603 16.0169 8.60603C15.7758 8.60603 15.5347 8.6388 15.2937 8.70432L11.9875 4.74005C11.8153 4.54348 11.5053 4.51071 11.2987 4.67453C11.092 4.83834 11.0576 5.1332 11.2298 5.32978L14.4327 9.19576C14.2605 9.35957 14.1227 9.52339 13.985 9.71996C13.8816 9.91654 13.7783 10.1131 13.7439 10.3425H4.85848C3.27426 10.3425 2 11.5547 2 13.0617V27.2807C2 28.7878 3.27426 30 4.85848 30H27.1409C28.7251 30 29.9993 28.7878 29.9993 27.2807V13.0617C30.0338 11.5547 28.7251 10.3425 27.1753 10.3425ZM23.5936 26.4944C23.5936 27.3135 22.8704 28.0015 22.0094 28.0015H5.68503C4.82404 28.0015 4.10081 27.3135 4.10081 26.4944V13.8808C4.10081 13.0617 4.82404 12.3737 5.68503 12.3737H22.0094C22.8704 12.3737 23.5936 13.0617 23.5936 13.8808V26.4944ZM26.762 21.0558C26.2454 21.0558 25.8322 20.6627 25.8322 20.1712C25.8322 19.6798 26.2454 19.2866 26.762 19.2866C27.2786 19.2866 27.6919 19.6798 27.6919 20.1712C27.6919 20.6627 27.2786 21.0558 26.762 21.0558ZM26.762 18.0417C26.2454 18.0417 25.8322 17.6485 25.8322 17.1571C25.8322 16.6656 26.2454 16.2725 26.762 16.2725C27.2786 16.2725 27.6919 16.6656 27.6919 17.1571C27.6919 17.6485 27.2786 18.0417 26.762 18.0417Z" fill="#0C5B8E"/>
</svg>
