<svg width="58" height="46" viewBox="0 0 58 46" fill="none" xmlns="http://www.w3.org/2000/svg">
<path d="M51.8395 28.9663L57.6085 10.4417C57.8079 9.80707 57.6924 9.11504 57.2937 8.5744C56.9001 8.03945 56.2711 7.71961 55.605 7.71961H14.1612L11.8063 1.56197C11.4915 0.74882 10.7156 0.213867 9.84502 0.213867H3.02689C1.8674 0.215129 0.928711 1.15382 0.928711 2.31268C0.928711 3.46648 1.8674 4.41085 3.02689 4.41085H8.40291L10.7105 10.4423C10.7156 10.4631 10.7213 10.484 10.7313 10.4997L10.7995 10.6783L17.7955 28.9663C17.8163 29.0345 17.8378 29.0976 17.8687 29.1606L19.7618 34.1172C17.769 35.1347 16.4001 37.2064 16.4001 39.5929C16.4001 42.9862 19.1588 45.7448 22.552 45.7448C25.9403 45.7448 28.699 42.9862 28.699 39.5929C28.699 38.9109 28.5886 38.2555 28.3791 37.6417H40.9877C40.7777 38.2555 40.6679 38.9109 40.6679 39.5929C40.6679 42.9862 43.4266 45.7448 46.8199 45.7448C50.2081 45.7448 52.9668 42.9862 52.9668 39.5929C52.9668 36.2046 50.2081 33.4459 46.8199 33.4459H23.9954L22.8466 30.4406H49.8359C50.7538 30.44 51.5669 29.8426 51.8395 28.9663ZM48.7711 39.5922C48.7711 40.6729 47.8955 41.5485 46.8199 41.5485C45.7392 41.5485 44.8636 40.6729 44.8636 39.5922C44.8636 38.5173 45.7392 37.641 46.8199 37.641C47.8955 37.6417 48.7711 38.5173 48.7711 39.5922ZM24.5039 39.5922C24.5039 40.6729 23.6283 41.5485 22.5527 41.5485C21.472 41.5485 20.5964 40.6729 20.5964 39.5922C20.5964 38.5173 21.472 37.641 22.5527 37.641C23.6283 37.6417 24.5039 38.5173 24.5039 39.5922ZM21.2418 26.2443L15.7661 11.9153H52.7523L48.2941 26.2443H21.2418Z" fill="white"/>
</svg>
