<svg width="24" height="24" viewBox="0 0 24 24" fill="none" xmlns="http://www.w3.org/2000/svg">
<path fill-rule="evenodd" clip-rule="evenodd" d="M4 0C1.79086 0 0 1.79086 0 4V20C0 22.2091 1.79086 24 4 24H20C22.2091 24 24 22.2091 24 20V4C24 1.79086 22.2091 0 20 0H4ZM6 15C4.346 15 3 13.654 3 12C3 10.346 4.346 9 6 9C6.76273 9.00123 7.496 9.29468 8.049 9.82L14.04 6.397C14.0372 6.3769 14.0344 6.35682 14.0315 6.33673C14.0158 6.22596 14 6.11513 14 6C14 4.346 15.346 3 17 3C18.654 3 20 4.346 20 6C20 7.654 18.654 9 17 9C16.206 9 15.488 8.685 14.951 8.18L8.96 11.603C8.96276 11.6231 8.96562 11.6432 8.96847 11.6633C8.98423 11.774 9 11.8849 9 12C9 12.1151 8.98423 12.226 8.96847 12.3367C8.96562 12.3568 8.96276 12.3769 8.96 12.397L14.951 15.82C15.488 15.315 16.206 15 17 15C18.654 15 20 16.346 20 18C20 19.654 18.654 21 17 21C15.346 21 14 19.654 14 18C14 17.8843 14.0159 17.7729 14.0318 17.6621C14.0345 17.6427 14.0373 17.6234 14.04 17.604L8.049 14.18C7.512 14.685 6.794 15 6 15Z" fill="#011414"/>
</svg>
