<svg width="98" height="88" viewBox="0 0 98 88" fill="none" xmlns="http://www.w3.org/2000/svg">
<path d="M96.3103 0H1.68966C1.24153 0 0.81176 0.178017 0.494888 0.494889C0.178017 0.811761 0 1.24153 0 1.68966V70.9655C0 71.4136 0.178017 71.8434 0.494888 72.1603C0.81176 72.4772 1.24153 72.6552 1.68966 72.6552H96.3103C96.7585 72.6552 97.1882 72.4772 97.5051 72.1603C97.822 71.8434 98 71.4136 98 70.9655V1.68966C98 1.24153 97.822 0.811761 97.5051 0.494889C97.1882 0.178017 96.7585 0 96.3103 0ZM94.6207 69.2759H3.37931V3.37931H94.6207V69.2759Z" fill="black"/>
<path d="M96.3103 74.3448H1.68966C1.24153 74.3448 0.81176 74.5228 0.494888 74.8397C0.178017 75.1566 0 75.5864 0 76.0345V86.1724C0 86.6205 0.178017 87.0503 0.494888 87.3672C0.81176 87.6841 1.24153 87.8621 1.68966 87.8621H96.3103C96.7585 87.8621 97.1882 87.6841 97.5051 87.3672C97.822 87.0503 98 86.6205 98 86.1724V76.0345C98 75.5864 97.822 75.1566 97.5051 74.8397C97.1882 74.5228 96.7585 74.3448 96.3103 74.3448ZM57.4483 77.7241V79.4138H40.5517V77.7241H57.4483ZM94.6207 84.4828H3.37931V77.7241H37.1724V81.1034C37.1724 81.5516 37.3504 81.9813 37.6673 82.2982C37.9842 82.6151 38.4139 82.7931 38.8621 82.7931H59.1379C59.5861 82.7931 60.0158 82.6151 60.3327 82.2982C60.6496 81.9813 60.8276 81.5516 60.8276 81.1034V77.7241H94.6207V84.4828Z" fill="black"/>
<path d="M10.1379 64.2069H87.8621C88.3102 64.2069 88.74 64.0289 89.0568 63.712C89.3737 63.3951 89.5517 62.9654 89.5517 62.5172V8.44828C89.5517 8.00015 89.3737 7.57038 89.0568 7.25351C88.74 6.93664 88.3102 6.75862 87.8621 6.75862H10.1379C9.68981 6.75862 9.26004 6.93664 8.94316 7.25351C8.62629 7.57038 8.44828 8.00015 8.44828 8.44828V62.5172C8.44828 62.9654 8.62629 63.3951 8.94316 63.712C9.26004 64.0289 9.68981 64.2069 10.1379 64.2069ZM11.8276 10.1379H86.1724V60.8276H11.8276V10.1379Z" fill="black"/>
<path d="M67.4848 51.7034C67.4848 51.7034 67.4848 51.6021 67.4848 51.5683L62.1793 33.6917C61.6277 31.7662 60.6098 30.0065 59.2157 28.5682C57.8217 27.13 56.0946 26.0577 54.1872 25.4462C54.4377 25.029 54.631 24.5801 54.7617 24.1114L56.4514 17.9441C56.4514 17.9441 56.4514 17.9441 56.4514 17.8259C56.4831 17.613 56.4831 17.3966 56.4514 17.1838C56.4295 17.0679 56.3955 16.9547 56.35 16.8459C56.3176 16.7583 56.2781 16.6735 56.2317 16.5924C56.1595 16.4815 56.0744 16.3794 55.9783 16.2883L55.8093 16.1362C55.7665 16.0942 55.7214 16.0547 55.6741 16.0179C55.5871 15.9765 55.4966 15.9426 55.4038 15.9166H55.3024C55.1399 15.8927 54.9749 15.8927 54.8124 15.9166H54.6434C54.4915 15.9414 54.3437 15.9869 54.2041 16.0517H54.0521C53.9283 16.127 53.8147 16.2178 53.7141 16.3221L53.5621 16.491L53.4607 16.6093C53.4391 16.6506 53.4079 16.6859 53.3696 16.7124C53.3314 16.7389 53.2872 16.7557 53.241 16.7614C53.1059 16.7614 53.0045 16.6262 52.9707 16.491C52.8403 16.1485 52.6089 15.8537 52.3071 15.6457C52.0054 15.4377 51.6475 15.3263 51.281 15.3263C50.9145 15.3263 50.5567 15.4377 50.2549 15.6457C49.9532 15.8537 49.7218 16.1485 49.5914 16.491C49.461 16.1485 49.2296 15.8537 48.9278 15.6457C48.6261 15.4377 48.2682 15.3263 47.9017 15.3263C47.5352 15.3263 47.1774 15.4377 46.8756 15.6457C46.5739 15.8537 46.3425 16.1485 46.2121 16.491C46.2121 16.6262 46.0769 16.7614 45.9417 16.7614C45.8955 16.7557 45.8514 16.7389 45.8131 16.7124C45.7749 16.6859 45.7436 16.6506 45.7221 16.6093C45.5834 16.4387 45.4245 16.2855 45.249 16.1531L44.9955 16.0348C44.8874 15.9835 44.7741 15.9439 44.6576 15.9166H43.9141C43.8442 15.9455 43.7765 15.9794 43.7114 16.0179C43.6382 16.0132 43.5649 16.0132 43.4917 16.0179C43.3994 16.0879 43.3144 16.1672 43.2383 16.2545C43.0838 16.3981 42.9628 16.574 42.8839 16.7696C42.8051 16.9653 42.7703 17.1759 42.7821 17.3866C42.7696 17.5045 42.7696 17.6234 42.7821 17.7414C42.7821 17.7414 42.7821 17.7414 42.7821 17.8428L44.4717 24.0438C44.5951 24.4802 44.771 24.9001 44.9955 25.2941C43.016 25.865 41.2135 26.9285 39.7567 28.3853C38.2999 29.8421 37.2364 31.6446 36.6655 33.6241L31.1572 51.7034C31.1572 51.7034 31.1572 51.7034 31.1572 51.8048C31.1448 51.9228 31.1448 52.0417 31.1572 52.1597C31.14 52.3678 31.1689 52.5772 31.242 52.7729C31.315 52.9686 31.4303 53.1457 31.5797 53.2917C31.6549 53.385 31.7399 53.4699 31.8331 53.5452C31.9041 53.5788 31.9775 53.607 32.0528 53.6297C32.1228 53.6748 32.1962 53.7143 32.2724 53.7479H33.1848C33.3268 53.7095 33.4631 53.6527 33.5903 53.579H33.7255C33.8918 53.4593 34.0349 53.3105 34.1479 53.1397C34.5998 52.4008 35.2569 51.8095 36.0392 51.4379C36.8215 51.0662 37.695 50.9304 38.5532 51.0468C39.4114 51.1633 40.2171 51.527 40.872 52.0937C41.5269 52.6603 42.0028 53.4054 42.2414 54.2379C42.3498 54.5971 42.5748 54.91 42.8807 55.1272C43.1866 55.3444 43.5562 55.4536 43.931 55.4376H44.2183C44.6197 55.4842 45.0245 55.3854 45.3593 55.1591C45.6941 54.9328 45.9367 54.594 46.0431 54.2041C46.1904 53.3884 46.6003 52.6431 47.2104 52.0818C47.8204 51.5206 48.5972 51.1741 49.4224 51.0952C50.2476 51.1741 51.0244 51.5206 51.6345 52.0818C52.2445 52.6431 52.6544 53.3884 52.8017 54.2041C52.8975 54.5759 53.117 54.904 53.4241 55.1343C53.7313 55.3646 54.1077 55.4835 54.4914 55.4714H54.9645C55.3393 55.4874 55.7089 55.3782 56.0148 55.161C56.3207 54.9438 56.5457 54.6309 56.6541 54.2717C56.8992 53.4576 57.3718 52.7305 58.0164 52.176C58.6609 51.6215 59.4505 51.2628 60.2921 51.142C61.1336 51.0213 61.9922 51.1436 62.7666 51.4945C63.541 51.8454 64.199 52.4104 64.6631 53.1228L64.7645 53.2241L64.9672 53.4438C65.0645 53.535 65.1723 53.6144 65.2883 53.6803H65.4235C65.6608 53.7512 65.9109 53.7689 66.1559 53.7324C66.4009 53.6958 66.6348 53.6058 66.8412 53.4688C67.0476 53.3317 67.2213 53.151 67.35 52.9394C67.4788 52.7277 67.5594 52.4904 67.5862 52.2441C67.5822 52.0596 67.5479 51.8769 67.4848 51.7034ZM51.2979 19.6C51.6403 19.8196 52.0173 19.9795 52.4131 20.0731L51.5176 23.2834C51.449 23.6602 51.2545 24.0025 50.966 24.2542C50.6774 24.5059 50.3119 24.6522 49.9293 24.669H49.1352C48.7526 24.6522 48.3871 24.5059 48.0985 24.2542C47.81 24.0025 47.6155 23.6602 47.5469 23.2834L46.6683 20.0731C47.0641 19.9795 47.4411 19.8196 47.7835 19.6C48.2969 19.9724 48.9149 20.1729 49.5491 20.1729C50.1834 20.1729 50.8014 19.9724 51.3148 19.6H51.2979ZM54.6772 50.639C54.092 49.7536 53.2965 49.0272 52.3617 48.5246C51.427 48.022 50.3823 47.7589 49.321 47.7589C48.2598 47.7589 47.215 48.022 46.2803 48.5246C45.3456 49.0272 44.5501 49.7536 43.9648 50.639C43.2352 49.7387 42.3131 49.0133 41.2663 48.5163C40.2195 48.0192 39.0747 47.763 37.9159 47.7666C37.1843 47.7665 36.4563 47.8689 35.7531 48.0707L39.7069 34.7224C40.2207 32.8778 41.3253 31.2526 42.8512 30.096C44.3772 28.9393 46.2404 28.3149 48.1552 28.3186H50.6221C52.5376 28.3121 54.4021 28.9354 55.9286 30.0925C57.4552 31.2496 58.5591 32.8764 59.0703 34.7224L63.0241 48.0707C61.5557 47.6413 59.9929 47.6578 58.5339 48.1181C57.0749 48.5783 55.7855 49.4616 54.8293 50.6559L54.6772 50.639Z" fill="black"/>
<path d="M50.5545 36.6486L49.9293 36.5303V34.5366C50.4613 34.5699 50.9881 34.6606 51.5007 34.8069C51.955 34.9327 52.392 35.1143 52.8017 35.3476H53.1566V33.0834C52.6643 32.8985 52.1549 32.7626 51.6359 32.6779C51.0776 32.5738 50.5132 32.5061 49.9462 32.4752V30.6672H48.5776V32.4921C47.517 32.5352 46.4909 32.8812 45.6207 33.489C45.291 33.7087 45.019 34.0046 44.8278 34.3516C44.6367 34.6987 44.5319 35.0867 44.5224 35.4828C44.5071 35.9284 44.5877 36.3721 44.759 36.7838C44.912 37.1306 45.1433 37.4371 45.4348 37.6793C45.7483 37.9298 46.1027 38.1241 46.4824 38.2538C46.9188 38.4111 47.3646 38.5409 47.8172 38.6424L48.5776 38.8114V40.9572C47.9505 40.9089 47.3287 40.8072 46.719 40.6531C46.1313 40.5181 45.5634 40.3079 45.0293 40.0279H44.6745V42.3259C45.2535 42.5699 45.8609 42.7402 46.4824 42.8328C47.1512 42.9609 47.8293 43.0344 48.51 43.0524V45.8572H49.8786V43.0186C50.9559 42.9908 51.9944 42.611 52.8355 41.9372C53.2046 41.6794 53.5084 41.3389 53.7225 40.9429C53.9367 40.5468 54.0553 40.1062 54.069 39.6562C54.0897 39.288 54.0259 38.9199 53.8824 38.5802C53.7388 38.2404 53.5195 37.9381 53.241 37.6962C52.4484 37.1256 51.5241 36.7652 50.5545 36.6486ZM48.6959 36.3445C48.3147 36.3023 47.9465 36.1815 47.6145 35.9897C47.5287 35.9337 47.4567 35.859 47.4041 35.7712C47.3514 35.6834 47.3193 35.5848 47.3103 35.4828C47.3113 35.3507 47.35 35.2218 47.4219 35.111C47.4937 35.0002 47.5957 34.9123 47.7159 34.8576C48.0029 34.7025 48.3197 34.6104 48.6452 34.5872L48.6959 36.3445ZM50.791 40.6362C50.5228 40.7982 50.2234 40.9018 49.9124 40.9403V38.9972C50.2027 39.0452 50.4827 39.1423 50.7403 39.2845C50.869 39.3437 50.9775 39.4393 51.0525 39.5593C51.1275 39.6794 51.1659 39.8188 51.1628 39.9603C51.1681 40.1004 51.1347 40.2393 51.0661 40.3615C50.9975 40.4838 50.8965 40.5847 50.7741 40.6531L50.791 40.6362Z" fill="black"/>
</svg>
