<svg width="98" height="98" viewBox="0 0 98 98" fill="none" xmlns="http://www.w3.org/2000/svg">
<path d="M97.0074 89.3879L89.4303 78.5485V18.5606C89.4303 17.6697 88.836 17.0758 87.9446 17.0758H74.1276C70.1162 7.12727 60.3105 0 48.8706 0C39.5107 0 31.3394 4.75151 26.4365 11.7303C26.288 11.8788 26.1394 12.0273 25.9908 12.3242C25.0994 13.8091 24.208 15.2939 23.6137 17.0758H9.94525C9.05383 17.0758 8.45954 17.6697 8.45954 18.5606V78.5485L0.882464 89.3879C-0.157527 91.0212 -0.306097 93.2485 0.585324 95.0303C1.47675 96.8121 3.25959 98 5.33957 98H92.4017C94.4817 98 96.2645 96.8121 97.3045 95.0303C98.3445 93.2485 98.1959 91.0212 97.0074 89.3879ZM28.368 14.403H36.2422C35.3507 17.8182 34.7565 21.6788 34.6079 25.8364H24.6537C24.9508 21.6788 26.288 17.8182 28.368 14.403ZM73.0876 25.8364H63.1334C62.9848 21.6788 62.5391 17.8182 61.4991 14.403H69.3733C71.4533 17.8182 72.7904 21.6788 73.0876 25.8364ZM34.6079 28.8061C34.7565 32.3697 35.0536 35.7849 35.7965 38.7545H27.4765C25.8423 35.7849 24.9508 32.3697 24.8023 28.8061H34.6079ZM50.3563 51.3758V41.7242H57.9334C56.1506 46.9212 53.3277 50.4848 50.3563 51.3758ZM39.8079 41.7242H47.3849V51.3758C44.4135 50.4848 41.5907 46.9212 39.8079 41.7242ZM50.3563 38.7545V28.8061H60.162C60.0134 32.3697 59.5677 35.7849 58.8248 38.7545H50.3563ZM47.3849 38.7545H38.9164C38.1736 35.7849 37.7279 32.3697 37.5793 28.8061H47.3849V38.7545ZM36.6879 41.7242C37.7279 45.2879 39.3621 48.1091 41.145 50.3364C36.3907 48.703 32.2308 45.7333 29.4079 41.7242H36.6879ZM61.0534 41.7242H68.4819C65.5105 45.7333 61.4991 48.703 56.7449 50.3364C58.3791 48.2576 59.8648 45.2879 61.0534 41.7242ZM70.2647 38.903C70.1162 38.903 69.9676 38.7545 69.819 38.7545H61.9448C62.6877 35.6364 63.1334 32.3697 63.1334 28.8061H73.0876C72.7904 32.3697 71.899 35.7849 70.2647 38.903ZM60.162 25.8364H50.3563V14.403H58.3791C59.4191 17.8182 60.0134 21.6788 60.162 25.8364ZM50.3563 11.4333V3.26667C53.0306 4.15758 55.5563 7.12727 57.3391 11.4333H50.3563ZM47.3849 3.26667V11.4333H40.4021C42.185 7.12727 44.7107 4.00909 47.3849 3.26667ZM47.3849 14.403V25.8364H37.5793C37.7279 21.6788 38.3222 17.8182 39.3621 14.403H47.3849ZM21.6823 27.1727V27.4697C21.6823 42.4667 33.865 54.6424 48.8706 54.6424C63.8762 54.6424 76.059 42.4667 76.059 27.4697V27.1727C76.059 26.7273 76.059 26.1333 75.9104 25.6879H80.6647V72.0152H16.928V25.6879H21.8309C21.6823 26.1333 21.6823 26.7273 21.6823 27.1727ZM67.2933 11.4333H60.6077C59.5677 8.61212 58.2306 6.08788 56.7449 4.30606C60.7562 5.64242 64.4705 8.16667 67.2933 11.4333ZM41.145 4.30606C39.6593 6.23636 38.3222 8.61212 37.2822 11.4333H30.5965C33.2708 8.16667 36.985 5.64242 41.145 4.30606ZM11.4309 20.0455H22.7223C22.4251 20.9364 22.2766 21.8273 22.128 22.7182H15.4423C14.5509 22.7182 13.9566 23.3121 13.9566 24.203V73.5C13.9566 74.3909 14.5509 74.9848 15.4423 74.9848H82.2989C83.0418 74.9848 83.7846 74.2424 83.6361 73.5V24.203C83.6361 23.3121 83.0418 22.7182 82.1504 22.7182H75.6133C75.4647 21.8273 75.3161 20.9364 75.019 20.0455H86.4589V77.5091H11.4309V20.0455ZM94.7788 93.6939C94.3331 94.5848 93.4417 95.0303 92.5503 95.0303H5.33957C4.29958 95.0303 3.55673 94.5848 3.11102 93.6939C2.66531 92.9515 2.66531 91.9121 3.25959 91.1697L10.6881 80.4788H87.2017L94.6303 91.1697C95.2245 91.9121 95.2245 92.803 94.7788 93.6939Z" fill="#011414"/>
<path d="M57.7848 85.5273C57.4877 84.9334 57.042 84.4879 56.2991 84.4879H41.7393C40.9964 84.4879 40.4021 84.9334 40.2536 85.5273L38.6193 91.1697C38.4707 91.6152 38.6193 92.2091 38.9164 92.5061C39.2136 92.9516 39.6593 93.1 40.105 93.1H57.6363C58.2306 93.1 58.6763 92.8031 59.122 92.5061C59.4191 92.0606 59.5677 91.6152 59.4191 91.1697L57.7848 85.5273ZM42.0364 90.1303L42.7793 87.4576H55.1106L55.8534 90.1303H42.0364Z" fill="#011414"/>
</svg>
