<svg width="98" height="69" viewBox="0 0 98 69" fill="none" xmlns="http://www.w3.org/2000/svg">
<path d="M88.8125 58.1875C87.8938 58.1875 87.2812 57.575 87.2812 56.6562V3.0625H10.7188V56.6562C10.7188 57.575 10.1062 58.1875 9.1875 58.1875C8.26875 58.1875 7.65625 57.575 7.65625 56.6562V1.53125C7.65625 0.6125 8.26875 0 9.1875 0H88.8125C89.7312 0 90.3438 0.6125 90.3438 1.53125V56.6562C90.3438 57.575 89.7312 58.1875 88.8125 58.1875Z" fill="#011414"/>
<path d="M82.6875 52.0625H15.3125C14.3938 52.0625 13.7812 51.45 13.7812 50.5312V7.65625C13.7812 6.7375 14.3938 6.125 15.3125 6.125H82.6875C83.6062 6.125 84.2188 6.7375 84.2188 7.65625V50.5312C84.2188 51.45 83.6062 52.0625 82.6875 52.0625ZM16.8438 49H81.1562V9.1875H16.8438V49Z" fill="#011414"/>
<path d="M85.75 68.9062H12.25C5.5125 68.9062 0 63.3937 0 56.6562C0 55.7375 0.6125 55.125 1.53125 55.125H41.8031C42.7219 55.125 43.3344 55.7375 43.3344 56.6562V59.7188H54.6656V56.6562C54.6656 55.7375 55.2781 55.125 56.1969 55.125H96.4688C97.3875 55.125 98 55.7375 98 56.6562C98 63.3937 92.4875 68.9062 85.75 68.9062ZM3.21562 58.1875C3.98125 62.475 7.65625 65.8438 12.25 65.8438H85.75C90.3438 65.8438 94.0188 62.475 94.7844 58.1875H57.7281V61.25C57.7281 62.1688 57.1156 62.7812 56.1969 62.7812H41.8031C40.8844 62.7812 40.2719 62.1688 40.2719 61.25V58.1875H3.21562Z" fill="#011414"/>
<path d="M49 36.75C48.3875 36.75 47.775 36.4438 47.6219 35.8313L41.0375 21.4375L34.9125 30.0125C34.6062 30.4719 34.1469 30.625 33.6875 30.625H21.4375C20.5187 30.625 19.9062 30.0125 19.9062 29.0938C19.9062 28.175 20.5187 27.5625 21.4375 27.5625H32.9219L40.1188 17.4563C40.425 16.9969 41.0375 16.6906 41.4969 16.8438C42.1094 16.8438 42.5687 17.3031 42.7219 17.7625L49.1531 31.85L53.7469 23.7344C54.0531 23.275 54.5125 22.9688 55.125 22.9688C55.7375 22.9688 56.1969 23.275 56.5031 23.8875L59.7188 30.1656L64.4656 19.2938C64.7719 18.6813 65.2312 18.375 65.8438 18.375C66.4563 18.375 66.9156 18.6813 67.2219 19.2938L71.3562 27.5625H76.5625C77.4812 27.5625 78.0938 28.175 78.0938 29.0938C78.0938 30.0125 77.4812 30.625 76.5625 30.625H70.4375C69.825 30.625 69.3656 30.3188 69.0594 29.7063L65.8438 23.4281L61.0969 34.3C60.7906 34.9125 60.3312 35.2188 59.7188 35.2188C59.1063 35.2188 58.6469 34.9125 58.3406 34.3L54.9719 27.7156L50.3781 35.9844C50.0719 36.4438 49.6125 36.75 49 36.75Z" fill="#011414"/>
</svg>
