<svg width="98" height="98" viewBox="0 0 98 98" fill="none" xmlns="http://www.w3.org/2000/svg">
<path d="M90.9342 25.1435H50.7751C50.3709 23.1183 49.3746 21.3054 47.9762 19.8906L60.5684 11.5203C61.5075 10.8956 61.7627 9.62777 61.138 8.68866C60.5112 7.74955 59.2393 7.49436 58.3064 8.11907L44.2197 17.4836C42.1782 16.7139 40.5878 16.6772 38.8668 16.9651L25.7438 0.757278C25.0313 -0.118542 23.7472 -0.255325 22.8734 0.45513C21.9955 1.16559 21.8608 2.45176 22.5692 3.32758L34.8675 18.5166C32.5952 20.0192 30.9436 22.3833 30.3904 25.1455H7.06168C3.16847 25.1435 0 28.3119 0 32.2051V83.6091C0 87.5023 3.16847 90.6687 7.06168 90.6687H9.88513V95.9502C9.88513 97.0771 10.7977 97.9917 11.9267 97.9917H19.2803C20.1235 97.9917 20.8809 97.4732 21.1851 96.6851L23.5083 90.6708H74.4937L76.817 96.6851C77.1191 97.4711 77.8786 97.9917 78.7218 97.9917H86.0754C87.2043 97.9917 88.1169 97.0771 88.1169 95.9502V90.6708H90.9404C94.8336 90.6708 98 87.5043 98 83.6111V32.2051C97.9939 28.3119 94.8275 25.1435 90.9342 25.1435ZM46.5593 25.1435H34.6102C36.5497 19.4762 44.6076 19.4578 46.5593 25.1435ZM17.8798 93.9086H13.9682V90.6708H19.1292L17.8798 93.9086ZM84.0277 93.9086H80.1161L78.8667 90.6708H84.0277V93.9086ZM93.9108 83.6091C93.9108 87.2634 89.8318 86.5856 86.0693 86.5856C67.3483 86.5856 23.6492 86.5856 7.06168 86.5856C5.41825 86.5877 4.08308 85.2505 4.08308 83.6091V32.2051C4.08308 30.5637 5.41825 29.2286 7.06168 29.2286C37.35 29.2286 60.646 29.2286 90.9342 29.2286C92.5756 29.2286 93.9108 30.5637 93.9108 32.2051V83.6091Z" fill="#011414"/>
<path d="M64.2656 35.1838H12.0798C10.9508 35.1838 10.0382 36.0984 10.0382 37.2253V78.591C10.0382 81.4042 8.72145 80.6325 64.2656 80.6325C65.3946 80.6325 66.3072 79.7179 66.3072 78.591V37.2253C66.3072 36.0984 65.3925 35.1838 64.2656 35.1838ZM62.2241 76.5494H14.1213V39.2668H62.2241V76.5494Z" fill="#011414"/>
<path d="M70.7679 78.8421C70.7679 79.9445 71.707 80.8836 72.8095 80.8836C73.9629 80.8836 74.8714 79.9159 74.8714 78.8421C74.8714 78.3113 74.6468 77.7805 74.2589 77.3926C73.0708 76.2044 70.7679 76.9475 70.7679 78.8421Z" fill="#011414"/>
<path d="M78.097 78.8421C78.097 81.5491 82.1801 81.5144 82.1801 78.8421C82.1801 78.2909 81.9556 77.7805 81.5881 77.3926C80.3897 76.1942 78.097 76.9291 78.097 78.8421Z" fill="#011414"/>
<path d="M86.0182 80.2711C86.7654 81.0612 88.0557 81.1102 88.8968 80.2711C89.693 79.5137 89.6767 78.1337 88.8968 77.3926C86.9594 75.4572 84.1114 78.4685 86.0182 80.2711Z" fill="#011414"/>
<path d="M78.8708 49.4745C82.811 49.4745 86.0162 46.2693 86.0162 42.3291C86.0162 38.389 82.811 35.1838 78.8708 35.1838C74.9306 35.1838 71.7254 38.389 71.7254 42.3291C71.7254 46.2693 74.9306 49.4745 78.8708 49.4745ZM78.8708 39.2668C80.5591 39.2668 81.9331 40.6408 81.9331 42.3291C81.9331 44.0175 80.5591 45.3915 78.8708 45.3915C77.1824 45.3915 75.8085 44.0175 75.8085 42.3291C75.8085 40.6408 77.1824 39.2668 78.8708 39.2668Z" fill="#011414"/>
<path d="M78.8708 53.4025C74.9306 53.4025 71.7254 56.6077 71.7254 60.5478C71.7254 64.488 74.9306 67.6932 78.8708 67.6932C82.811 67.6932 86.0162 64.488 86.0162 60.5478C86.0162 56.6077 82.811 53.4025 78.8708 53.4025ZM78.8708 63.6101C77.1824 63.6101 75.8085 62.2362 75.8085 60.5478C75.8085 58.8595 77.1824 57.4855 78.8708 57.4855C80.5591 57.4855 81.9331 58.8595 81.9331 60.5478C81.9331 62.2362 80.5591 63.6101 78.8708 63.6101Z" fill="#011414"/>
<path d="M19.4375 59.18L32.8279 45.7916C33.6262 44.9934 33.6262 43.7031 32.8279 42.9049C32.0297 42.1066 30.7395 42.1066 29.9412 42.9049C16.8815 55.9646 14.5092 57.1385 16.5508 59.18C17.349 59.9783 18.6413 59.9783 19.4375 59.18Z" fill="#011414"/>
<path d="M20.5073 71.2353L44.8832 46.8593C45.6815 46.0611 45.6815 44.7688 44.8832 43.9726C44.085 43.1743 42.7947 43.1743 41.9965 43.9726L17.6205 68.3486C15.7137 70.2554 18.6005 73.1421 20.5073 71.2353Z" fill="#011414"/>
</svg>
