<svg width="90" height="98" viewBox="0 0 90 98" fill="none" xmlns="http://www.w3.org/2000/svg">
<path d="M85.75 61.25H79.625V4.08333C79.625 1.8375 77.7875 0 75.5417 0H14.2917C12.0458 0 10.2083 1.8375 10.2083 4.08333V61.25H4.08333C1.8375 61.25 0 63.0875 0 65.3333V91.875C0 95.3458 2.65417 98 6.125 98H83.7083C87.1792 98 89.8333 95.3458 89.8333 91.875V65.3333C89.8333 63.0875 87.9958 61.25 85.75 61.25ZM14.2917 4.08333H75.5417V61.25H70.2333L64.1083 73.5H25.725L19.6 61.25C18.7833 61.25 14.0875 61.25 14.2917 61.25V4.08333ZM85.75 91.875C85.75 93.1 84.9333 93.9167 83.7083 93.9167H6.125C4.9 93.9167 4.08333 93.1 4.08333 91.875V65.3333C4.2875 65.3333 17.5583 65.3333 17.15 65.3333L23.275 77.5833C27.7667 77.5833 60.8417 77.5833 66.5583 77.5833L72.6833 65.3333C73.0917 65.3333 85.9542 65.3333 85.75 65.3333V91.875Z" fill="#011414"/>
<path d="M69.4167 10.2083H20.4167V26.5417H69.4167V10.2083ZM65.3333 22.4583H24.5V14.2917H65.3333V22.4583Z" fill="#011414"/>
<path d="M22.4583 36.75H38.7917C40.0167 36.75 40.8333 35.9333 40.8333 34.7083C40.8333 33.4833 40.0167 32.6667 38.7917 32.6667H22.4583C21.2333 32.6667 20.4167 33.4833 20.4167 34.7083C20.4167 35.9333 21.2333 36.75 22.4583 36.75Z" fill="#011414"/>
<path d="M22.4583 46.9583H38.7917C40.0167 46.9583 40.8333 46.1417 40.8333 44.9167C40.8333 43.6917 40.0167 42.875 38.7917 42.875H22.4583C21.2333 42.875 20.4167 43.6917 20.4167 44.9167C20.4167 46.1417 21.2333 46.9583 22.4583 46.9583Z" fill="#011414"/>
<path d="M22.4583 57.1667H38.7917C40.0167 57.1667 40.8333 56.35 40.8333 55.125C40.8333 53.9 40.0167 53.0833 38.7917 53.0833H22.4583C21.2333 53.0833 20.4167 53.9 20.4167 55.125C20.4167 56.35 21.2333 57.1667 22.4583 57.1667Z" fill="#011414"/>
<path d="M67.375 32.6667C53.9 33.2792 49 31.0333 49 34.7083C49 35.9333 49.8167 36.75 51.0417 36.75H67.375C70.0292 36.75 70.0292 32.6667 67.375 32.6667Z" fill="#011414"/>
<path d="M67.375 42.875H51.0417C49.8167 42.875 49 43.6917 49 44.9167C49 46.1417 49.8167 46.9583 51.0417 46.9583H67.375C68.6 46.9583 69.4167 46.1417 69.4167 44.9167C69.4167 43.6917 68.6 42.875 67.375 42.875Z" fill="#011414"/>
<path d="M67.375 53.0833H51.0417C49.8167 53.0833 49 53.9 49 55.125C49 56.35 49.8167 57.1667 51.0417 57.1667H67.375C68.6 57.1667 69.4167 56.35 69.4167 55.125C69.4167 53.9 68.6 53.0833 67.375 53.0833Z" fill="#011414"/>
<path d="M51.0417 83.7083C41.8542 84.3208 36.75 82.2792 36.75 85.75C36.75 89.2208 41.65 87.1792 51.0417 87.7917C53.6958 87.7917 53.6958 83.7083 51.0417 83.7083Z" fill="#011414"/>
</svg>
