<svg width="99" height="99" viewBox="0 0 99 99" fill="none" xmlns="http://www.w3.org/2000/svg">
<path d="M81.2488 61.1588C81.2617 61.131 81.2713 61.1032 81.2822 61.0743C82.6382 57.4029 83.3805 53.4367 83.3805 49.3C83.3805 45.0031 82.5732 40.8932 81.1153 37.1035C81.0972 37.0495 81.0792 36.9986 81.054 36.9482C76.0956 24.2464 63.736 15.2196 49.3 15.2196C30.5081 15.2196 15.2196 30.5081 15.2196 49.3C15.2196 68.0915 30.5073 83.3798 49.2986 83.3805H49.3C63.9232 83.3805 76.4218 74.121 81.2488 61.1588ZM33.4474 49.3C33.4474 45.4704 34.0732 41.9338 35.0742 38.7135H48.075V59.4225H34.9295C34.0119 56.3277 33.4474 52.9456 33.4474 49.3ZM62.6538 36.2635H50.525V19.3713C53.5309 21.9813 59.3317 27.8061 62.6538 36.2635ZM48.075 19.046V36.2635H35.9272C39.2459 27.7019 45.0579 21.7321 48.075 19.046ZM48.075 61.8725V79.5541C45.004 76.8201 39.0401 70.6809 35.7548 61.8725H48.075ZM50.525 79.5554V61.8725H62.8378C59.5542 70.6724 53.597 76.8193 50.525 79.5554ZM50.525 59.4225V38.7135H63.5159C64.5236 41.9207 65.1527 45.4565 65.1527 49.3C65.1527 52.9495 64.5746 56.325 63.6553 59.4225H50.525ZM66.1081 38.7135H79.1024C80.2824 42.0256 80.9305 45.5879 80.9305 49.3C80.9305 52.8399 80.3372 56.2419 79.2597 59.4225H66.2414C67.0859 56.317 67.6027 52.9416 67.6027 49.3C67.6027 45.465 67.0344 41.9335 66.1081 38.7135ZM78.1076 36.2635H65.3116C62.0162 27.1244 55.9578 20.8408 52.5237 17.8327C63.9291 18.9924 73.554 26.2413 78.1076 36.2635ZM45.6699 17.8842C42.1794 21.0925 36.4387 27.3779 33.2714 36.2635H20.4925C24.9916 26.3612 34.4433 19.1735 45.6699 17.8842ZM19.4977 38.7135H32.4837C31.5625 41.9445 30.9974 45.4775 30.9974 49.3C30.9974 52.9416 31.5142 56.317 32.3587 59.4225H19.3404C18.2629 56.2419 17.6696 52.8399 17.6696 49.3C17.6696 45.5879 18.3177 42.0256 19.4977 38.7135ZM20.2823 61.8725H33.1027C36.2319 71.0062 42.1183 77.4514 45.6699 80.7159C34.268 79.4065 24.6936 72.0145 20.2823 61.8725ZM52.9302 80.7159C56.4817 77.4514 62.3682 71.0062 65.4974 61.8725H78.3178C73.9065 72.0145 64.3321 79.4065 52.9302 80.7159Z" fill="#011414"/>
<path d="M92.6338 63.1171C92.3348 63.7237 92.5842 64.4582 93.1907 64.7579C93.3648 64.8434 93.5496 64.8841 93.7314 64.8841C94.1836 64.8841 94.6179 64.6334 94.8314 64.201C97.1331 59.5355 98.3 54.5224 98.3 49.3C98.3 44.3712 97.2473 39.6327 95.1957 35.1931L96.6049 35.7329C97.2324 35.9739 97.9442 35.6587 98.187 35.0265C98.4287 34.3948 98.1128 33.6866 97.4806 33.4444L93.3731 31.8713C92.7415 31.629 92.0333 31.9454 91.791 32.5777L90.2179 36.6851C89.9763 37.3168 90.2921 38.025 90.9243 38.2672C91.0679 38.3223 91.2162 38.3486 91.3622 38.3486C91.8544 38.3486 92.3192 38.0489 92.5064 37.5608L92.9981 36.2768C94.8829 40.3762 95.8501 44.7505 95.8501 49.3C95.8501 54.1432 94.768 58.792 92.6338 63.1171Z" fill="#011414"/>
<path d="M35.0732 0.383191C34.4409 0.142139 33.7333 0.456763 33.4911 1.0896L31.918 5.19706C31.8019 5.50032 31.8109 5.83707 31.9437 6.13375C32.0759 6.43103 32.3205 6.66251 32.6244 6.77915L36.7324 8.35227C36.8766 8.4073 37.0243 8.43362 37.1703 8.43362C37.6631 8.43362 38.1273 8.13395 38.3145 7.64586C38.5562 7.01422 38.2404 6.30602 37.6081 6.06377L36.3338 5.57591C40.4167 3.70843 44.7716 2.75005 49.3 2.75005C54.1432 2.75005 58.792 3.83209 63.1172 5.96627C63.2912 6.05181 63.4761 6.09248 63.6579 6.09248C64.1101 6.09248 64.5444 5.84186 64.7579 5.4094C65.057 4.80288 64.8075 4.06836 64.201 3.76869C59.5355 1.46703 54.5224 0.300049 49.3 0.300049C44.387 0.300049 39.6632 1.34605 35.2358 3.38483L35.7796 1.96528C36.0212 1.33364 35.7054 0.625439 35.0732 0.383191Z" fill="#011414"/>
<path d="M2.01254 62.7906C1.38448 62.549 0.673291 62.8636 0.430444 63.497C0.188794 64.1287 0.504614 64.8369 1.13685 65.0791L5.24431 66.6523C5.38547 66.7061 5.53381 66.733 5.68215 66.733C5.85262 66.733 6.0225 66.6977 6.1816 66.6265C6.47828 66.4943 6.70976 66.2497 6.8264 65.9458L8.39892 61.8384C8.64058 61.2067 8.32475 60.4985 7.69252 60.2563C7.06267 60.0164 6.35327 60.3299 6.11042 60.9627L5.59527 62.3086C3.71493 58.2135 2.75005 53.8442 2.75005 49.3001C2.75005 44.4569 3.83209 39.8081 5.96627 35.4829C6.26534 34.8764 6.01592 34.1419 5.4094 33.8422C4.80288 33.5455 4.06836 33.7932 3.76869 34.3991C1.46703 39.0646 0.300049 44.0777 0.300049 49.3001C0.300049 54.1915 1.33723 58.8955 3.35814 63.3061L2.01254 62.7906Z" fill="#011414"/>
<path d="M63.5442 98.1403C63.6884 98.1954 63.8361 98.2217 63.9821 98.2217C64.475 98.2211 64.9391 97.922 65.1263 97.4339L66.6989 93.3265C66.9405 92.6948 66.6247 91.9866 65.9924 91.7444L61.885 90.1713C61.2539 89.9296 60.5451 90.2442 60.3029 90.8777C60.0612 91.5093 60.3771 92.2175 61.0093 92.4598L62.365 92.9789C58.2537 94.8764 53.865 95.8501 49.3 95.8501C44.4568 95.8501 39.8081 94.768 35.4829 92.6338C34.8782 92.3377 34.1424 92.5848 33.8422 93.1907C33.5431 93.7972 33.7925 94.5317 34.3991 94.8314C39.0646 97.1331 44.0776 98.3 49.3 98.3C54.2076 98.3 58.9262 97.2562 63.3494 95.2221L62.8378 96.5583C62.5962 97.1899 62.912 97.8981 63.5442 98.1403Z" fill="#011414"/>
<path fill-rule="evenodd" clip-rule="evenodd" d="M81.2822 61.0743L81.2755 61.0919C81.2713 61.1033 81.2672 61.1146 81.2628 61.1257C81.2584 61.1368 81.2539 61.1478 81.2488 61.1588C76.4218 74.121 63.9232 83.3805 49.3 83.3805H49.2986C30.5073 83.3798 15.2196 68.0915 15.2196 49.3C15.2196 30.5081 30.5081 15.2196 49.3 15.2196C63.736 15.2196 76.0956 24.2464 81.054 36.9482C81.0792 36.9986 81.0972 37.0495 81.1153 37.1035C82.5732 40.8932 83.3805 45.0031 83.3805 49.3C83.3805 53.4367 82.6382 57.4029 81.2822 61.0743ZM81.3975 37.0015C82.8668 40.823 83.6805 44.9673 83.6805 49.3C83.6805 53.4728 82.9316 57.4741 81.5635 61.1782L81.563 61.1798C81.5618 61.1828 81.5604 61.1866 81.5588 61.1909C81.5516 61.2106 81.54 61.2421 81.5263 61.2731C76.6545 74.3435 64.0492 83.6805 49.3 83.6805H49.2986C30.3416 83.6797 14.9195 68.2571 14.9195 49.3C14.9195 30.3424 30.3424 14.9195 49.3 14.9195C63.8598 14.9195 76.3242 24.0209 81.3288 36.8274C81.3592 36.8905 81.3805 36.9511 81.3975 37.0015ZM92.3648 62.9843C94.4785 58.7006 95.55 54.0973 95.55 49.3C95.55 45.0367 94.6927 40.9295 93.0192 37.0605L92.7865 37.668C92.5535 38.2757 91.9748 38.6485 91.3621 38.6485C91.18 38.6485 90.9953 38.6157 90.8169 38.5473C90.0301 38.2458 89.6368 37.3642 89.9377 36.5779L91.5108 32.4703L91.791 32.5777L90.2179 36.6851C89.9763 37.3168 90.2921 38.025 90.9243 38.2672C91.0679 38.3223 91.2162 38.3486 91.3622 38.3486C91.8544 38.3486 92.3192 38.0489 92.5064 37.5608L92.9981 36.2768C93.057 36.4048 93.1149 36.5331 93.1719 36.6616C94.9423 40.6495 95.8501 44.8926 95.8501 49.3C95.8501 54.1432 94.768 58.792 92.6338 63.1171C92.3348 63.7237 92.5842 64.4582 93.1907 64.7579C93.3648 64.8434 93.5496 64.8841 93.7314 64.8841C94.1836 64.8841 94.6179 64.6334 94.8314 64.201C97.1331 59.5355 98.3 54.5224 98.3 49.3C98.3 44.5149 97.3077 39.9091 95.3725 35.582C95.3144 35.4521 95.2555 35.3225 95.1957 35.1931L96.6049 35.7329C97.2324 35.9739 97.9442 35.6587 98.187 35.0265C98.4287 34.3948 98.1128 33.6866 97.4806 33.4444L97.5879 33.1642C98.3748 33.4657 98.768 34.3473 98.4672 35.1336C98.165 35.9204 97.2796 36.3134 96.4973 36.0129L95.7674 35.7333C97.6401 40.019 98.6 44.5731 98.6 49.3C98.6 54.5682 97.4225 59.6267 95.1004 64.3337C94.8344 64.8724 94.2933 65.184 93.7314 65.184C93.5046 65.184 93.2744 65.1332 93.0583 65.0271C92.3035 64.6541 91.9924 63.7396 92.3648 62.9843ZM93.3731 31.8713L97.4806 33.4444L97.5879 33.1642L93.4805 31.5911C92.6938 31.2894 91.8122 31.6837 91.5108 32.4703L91.791 32.5777C92.0333 31.9454 92.7415 31.629 93.3731 31.8713ZM35.1805 0.103002C35.9674 0.404501 36.3606 1.28607 36.0597 2.07243L35.7755 2.81431C40.049 0.95362 44.5887 0 49.3 0C54.5682 0 59.6267 1.17749 64.3337 3.4996C65.0885 3.87253 65.3993 4.78681 65.0269 5.54203C64.7609 6.08078 64.2198 6.39243 63.6579 6.39243C63.4311 6.39243 63.2009 6.34165 62.9848 6.23547C58.7011 4.12175 54.0973 3.05 49.3 3.05C45.0583 3.05 40.9712 3.89877 37.1194 5.55542L37.7153 5.78355C38.5022 6.08505 38.8955 6.96665 38.5947 7.75301C38.3616 8.36059 37.7835 8.73357 37.1702 8.73357C36.9879 8.73357 36.8039 8.70064 36.6254 8.63249L32.517 7.05926C32.1395 6.91432 31.8346 6.62633 31.6698 6.25626C31.5044 5.88669 31.4933 5.46727 31.6377 5.0898L33.2109 0.982301C33.5125 0.194338 34.3941 -0.196816 35.1805 0.103002ZM33.4911 1.0896C33.7333 0.456763 34.4409 0.142139 35.0732 0.383191C35.7054 0.625439 36.0212 1.33364 35.7796 1.96528L35.2358 3.38483C35.3651 3.32528 35.4947 3.26653 35.6245 3.20867C39.9393 1.28579 44.5305 0.300049 49.3 0.300049C54.5224 0.300049 59.5355 1.46703 64.201 3.76869C64.8075 4.06836 65.057 4.80288 64.7579 5.4094C64.5444 5.84186 64.1101 6.09248 63.6579 6.09248C63.4761 6.09248 63.2912 6.05181 63.1172 5.96627C58.792 3.83209 54.1432 2.75005 49.3 2.75005C44.914 2.75005 40.6907 3.64905 36.7197 5.40239C36.5908 5.45931 36.4622 5.51718 36.3338 5.57591L37.6081 6.06377C38.2404 6.30602 38.5562 7.01422 38.3145 7.64586C38.1273 8.13395 37.6631 8.43362 37.1703 8.43362C37.0243 8.43362 36.8766 8.4073 36.7324 8.35227L32.6244 6.77915C32.3205 6.66251 32.0759 6.43103 31.9437 6.13375C31.8109 5.83707 31.8019 5.50032 31.918 5.19706L33.4911 1.0896ZM0.430444 63.497C0.673291 62.8636 1.38448 62.549 2.01254 62.7906L3.35814 63.3061C3.29895 63.1769 3.24055 63.0474 3.18304 62.9177C1.27731 58.6197 0.300049 54.0483 0.300049 49.3001C0.300049 44.0777 1.46703 39.0646 3.76869 34.3991C4.06836 33.7932 4.80288 33.5455 5.4094 33.8422C6.01592 34.1419 6.26534 34.8764 5.96627 35.4829C3.83209 39.8081 2.75005 44.4569 2.75005 49.3001C2.75005 53.702 3.65545 57.9399 5.42143 61.9234C5.47846 62.052 5.53644 62.1805 5.59527 62.3086L6.11042 60.9627C6.35327 60.3299 7.06267 60.0164 7.69252 60.2563C8.32475 60.4985 8.64058 61.2067 8.39892 61.8384L6.8264 65.9458C6.70976 66.2497 6.47828 66.4943 6.1816 66.6265C6.0225 66.6977 5.85262 66.733 5.68215 66.733C5.53381 66.733 5.38547 66.7061 5.24431 66.6523L1.13685 65.0791C0.504614 64.8369 0.188794 64.1287 0.430444 63.497ZM6.30365 66.9005C6.10552 66.9891 5.89398 67.033 5.6821 67.033C5.49744 67.033 5.31286 66.9994 5.13737 66.9325L1.02951 65.3592C0.242634 65.0577 -0.150641 64.1762 0.150201 63.3898C0.452373 62.6016 1.3373 62.2094 2.12022 62.5106L2.78941 62.7669C0.945379 58.5103 0 53.9902 0 49.3C0 44.0318 1.17749 38.9733 3.4996 34.2663C3.87292 33.5115 4.78715 33.2039 5.54117 33.5727L5.54224 33.5732C6.29703 33.9461 6.60769 34.8603 6.23529 35.6156C4.12157 39.8993 3.05 44.5027 3.05 49.3C3.05 53.5577 3.90508 57.6597 5.57421 61.5242L5.8302 60.8554C6.13261 60.0674 7.01564 59.6775 7.79923 59.9759C8.58611 60.2774 8.97991 61.1592 8.67907 61.9455L7.10652 66.0531C6.96152 66.4308 6.67334 66.7358 6.30365 66.9005ZM63.4369 98.4204C62.65 98.1189 62.2567 97.2374 62.5576 96.451L62.8099 95.792C58.5406 97.6484 54.006 98.6 49.3 98.6C44.0317 98.6 38.9732 97.4225 34.2663 95.1004C33.5115 94.7275 33.2007 93.8132 33.5731 93.058C33.947 92.3033 34.8625 91.996 35.6148 92.3643C39.8985 94.4781 44.5026 95.55 49.3 95.55C53.5791 95.55 57.7011 94.6864 61.5826 93.0005L60.902 92.7399C60.1151 92.4384 59.7218 91.5568 60.0226 90.7705C60.3242 89.9819 61.2067 89.5903 61.9922 89.8911L66.0997 91.4642L65.9924 91.7444L61.885 90.1713C61.2539 89.9296 60.5451 90.2442 60.3029 90.8777C60.0612 91.5093 60.3771 92.2175 61.0093 92.4598L62.365 92.9789C62.2373 93.0378 62.1092 93.0959 61.9809 93.153C57.9807 94.9359 53.7232 95.8501 49.3 95.8501C44.4568 95.8501 39.8081 94.768 35.4829 92.6338C34.8782 92.3377 34.1424 92.5848 33.8422 93.1907C33.5431 93.7972 33.7925 94.5317 34.3991 94.8314C39.0646 97.1331 44.0776 98.3 49.3 98.3C54.0642 98.3 58.6502 97.3163 62.9608 95.3978C63.0906 95.3401 63.2201 95.2815 63.3494 95.2221L62.8378 96.5583C62.5962 97.1899 62.912 97.8981 63.5442 98.1403C63.6884 98.1954 63.8361 98.2217 63.9821 98.2217C64.475 98.2211 64.9391 97.922 65.1263 97.4339L66.6989 93.3265C66.9405 92.6948 66.6247 91.9866 65.9924 91.7444L66.0997 91.4642C66.8866 91.7657 67.2798 92.6473 66.979 93.4336L65.4064 97.5412C65.1733 98.149 64.5952 98.5209 63.9824 98.5217C63.8001 98.5217 63.6154 98.4886 63.4369 98.4204ZM35.2957 39.0134C34.3407 42.1511 33.7474 45.5868 33.7474 49.3C33.7474 52.8301 34.2812 56.1114 35.1541 59.1224H47.775V39.0134H35.2957ZM35.0742 38.7135C34.0732 41.9338 33.4474 45.4704 33.4474 49.3C33.4474 52.9456 34.0119 56.3277 34.9295 59.4225H48.075V38.7135H35.0742ZM62.6538 36.2635C62.6143 36.1631 62.5745 36.0631 62.5344 35.9634C59.3036 27.9395 53.8654 22.327 50.825 19.6343C50.7222 19.5433 50.6222 19.4556 50.525 19.3713V36.2635H62.6538ZM62.2108 35.9634H50.825V20.0362C53.8652 22.7636 59.0682 28.2301 62.2108 35.9634ZM48.075 19.046C47.9779 19.1325 47.8778 19.2223 47.775 19.3156C44.7235 22.0853 39.273 27.8361 36.0448 35.9634C36.0053 36.0631 35.9661 36.1631 35.9272 36.2635H48.075V19.046ZM47.775 19.7219C44.7228 22.5278 39.5078 28.1285 36.3678 35.9634H47.775V19.7219ZM47.775 78.878V62.1724H36.1895C39.3061 70.2489 44.6634 76.017 47.775 78.878ZM48.075 61.8725H35.7548C35.7923 61.9728 35.83 62.0728 35.8681 62.1724C39.0698 70.5435 44.6663 76.4625 47.775 79.2844C47.8778 79.3777 47.9779 79.4676 48.075 79.5541V61.8725ZM50.525 79.5554C50.6222 79.4688 50.7222 79.3788 50.825 79.2855C53.9341 76.4614 59.5244 70.5356 62.7244 62.1724C62.7626 62.0727 62.8004 61.9728 62.8378 61.8725H50.525V79.5554ZM50.825 78.879V62.1724H62.403C59.288 70.2413 53.9366 76.0158 50.825 78.879ZM50.825 39.0134V59.1224H63.4307C64.306 56.1084 64.8526 52.8332 64.8526 49.3C64.8526 45.5734 64.2562 42.1384 63.295 39.0134H50.825ZM66.1081 38.7135C66.1368 38.8132 66.1651 38.9131 66.1931 39.0134C67.069 42.1524 67.6027 45.5838 67.6027 49.3C67.6027 52.8246 67.1185 56.0999 66.3217 59.1224C66.2952 59.2227 66.2685 59.3227 66.2414 59.4225H79.2597C80.3372 56.2419 80.9305 52.8399 80.9305 49.3C80.9305 45.5879 80.2824 42.0256 79.1024 38.7135H66.1081ZM66.5045 39.0134C67.3739 42.1549 67.9026 45.5864 67.9026 49.3C67.9026 52.8227 67.4227 56.0982 66.6318 59.1224H79.0438C80.0679 56.0305 80.6305 52.7307 80.6305 49.3C80.6305 45.6974 80.0143 42.2374 78.89 39.0134H66.5045ZM78.1076 36.2635C78.062 36.1632 78.0159 36.0632 77.9693 35.9634C73.4317 26.2477 64.1059 19.1991 53.0407 17.8895C52.8687 17.8692 52.6964 17.8503 52.5237 17.8327C52.6495 17.9429 52.7788 18.0575 52.9114 18.1765C56.398 21.305 62.1369 27.4593 65.3116 36.2635H78.1076ZM77.6379 35.9634H65.5216C62.4058 27.4629 56.9316 21.4444 53.4289 18.2405C64.1541 19.6588 73.1796 26.5285 77.6379 35.9634ZM45.6699 17.8842C45.5 17.9037 45.3304 17.9246 45.1612 17.9468C34.2713 19.3769 25.1135 26.3652 20.6307 35.9634C20.5841 36.0632 20.5381 36.1632 20.4925 36.2635H33.2714C36.328 27.6885 41.7813 21.535 45.2958 18.2318C45.4231 18.1122 45.5479 17.9964 45.6699 17.8842ZM44.7865 18.3014C41.2759 21.6599 36.0636 27.6745 33.0604 35.9634H20.9621C25.3666 26.6424 34.2309 19.8315 44.7865 18.3014ZM19.71 39.0134C18.5857 42.2374 17.9695 45.6974 17.9695 49.3C17.9695 52.7307 18.5321 56.0305 19.5562 59.1224H31.9682C31.1773 56.0982 30.6974 52.8227 30.6974 49.3C30.6974 45.5977 31.2234 42.165 32.0882 39.0134H19.71ZM19.4977 38.7135C18.3177 42.0256 17.6696 45.5879 17.6696 49.3C17.6696 52.8399 18.2629 56.2419 19.3404 59.4225H32.3587C32.3316 59.3227 32.3048 59.2227 32.2783 59.1224C31.4815 56.0999 30.9974 52.8246 30.9974 49.3C30.9974 45.5954 31.5281 42.1628 32.3994 39.0134C32.4271 38.9132 32.4552 38.8132 32.4837 38.7135H19.4977ZM20.2823 61.8725C20.3259 61.9727 20.37 62.0727 20.4146 62.1724C24.8157 72.0097 34.0958 79.2002 45.1612 80.6532C45.3303 80.6754 45.4999 80.6964 45.6699 80.7159C45.5479 80.6037 45.4231 80.4878 45.2958 80.3682C41.7171 77.0054 36.1244 70.6924 33.1027 61.8725H20.2823ZM44.7864 80.2986C41.2096 76.8779 35.8623 70.7039 32.8889 62.1724H20.7436C25.0698 71.7315 34.0555 78.7431 44.7864 80.2986ZM53.3042 80.3682C53.1769 80.4878 53.0522 80.6037 52.9302 80.7159C53.1001 80.6964 53.2697 80.6754 53.4388 80.6532C64.5042 79.2002 73.7842 72.0097 78.1854 62.1724C78.23 62.0727 78.2741 61.9727 78.3178 61.8725H65.4974C62.4757 70.6924 56.8829 77.0054 53.3042 80.3682ZM53.8136 80.2986C57.3904 76.8779 62.7377 70.7039 65.7111 62.1724H77.8564C73.5302 71.7315 64.5445 78.7431 53.8136 80.2986ZM50.525 38.7135H63.5159C64.5236 41.9207 65.1527 45.4565 65.1527 49.3C65.1527 52.9495 64.5746 56.325 63.6553 59.4225H50.525V38.7135Z" fill="#011414"/>
</svg>
