<svg width="26" height="43" viewBox="0 0 26 43" fill="none" xmlns="http://www.w3.org/2000/svg">
<path fill-rule="evenodd" clip-rule="evenodd" d="M12.9971 0.00152542C12.9964 0.00157108 12.9956 0.00162365 12.9949 0.00167796C12.9922 0.00195087 12.9895 0.00229121 12.9868 0.00268474C12.979 0.00319003 12.9713 0.0041812 12.9635 0.00567455C12.8956 0.019173 12.8324 0.0704305 12.7843 0.151047C12.7363 0.231663 12.7062 0.336868 12.699 0.449449C11.3587 11.8308 7.53569 19.0166 0.275877 21.0037C0.211985 21.0129 0.151523 21.0556 0.103236 21.1254C0.0549494 21.1952 0.0213405 21.2885 0.00727004 21.392C0.0070735 21.3937 0.00688203 21.3954 0.00669574 21.397C0.00483842 21.4113 0.00335709 21.4256 0.00225595 21.44C0.00200756 21.4439 0.00178586 21.4477 0.001591 21.4515C0.00084693 21.463 0.000343016 21.4745 7.99433e-05 21.486C-2.66478e-05 21.4937 -2.66478e-05 21.5013 7.99433e-05 21.509C8.98991e-05 21.5172 0.000220863 21.5253 0.000472804 21.5335C0.000956773 21.545 0.0016825 21.5566 0.00264881 21.568C0.00293423 21.5718 0.00324667 21.5757 0.00358586 21.5795C0.00503846 21.5949 0.00692942 21.6103 0.00925265 21.6255C0.0247369 21.7268 0.0590306 21.8175 0.107313 21.885C0.155595 21.9524 0.215438 21.9931 0.278428 22.0013C7.53523 23.9891 11.3574 31.1723 12.6982 42.5487C12.7048 42.6644 12.7355 42.7728 12.7851 42.8551C12.8347 42.9375 12.9001 42.9886 12.9701 42.9998C12.9709 42.9998 12.9718 42.9998 12.9726 42.9998C12.9728 42.9998 12.973 42.9998 12.9732 42.9998C12.979 43.0001 12.9848 43.0001 12.9906 42.9998C12.9955 43 13.0003 43 13.0051 42.9998C13.0072 42.9998 13.0093 42.9998 13.0114 42.9998C13.0841 42.9954 13.1534 42.9479 13.2066 42.8658C13.2598 42.7837 13.2933 42.6727 13.301 42.553C14.6443 31.1719 18.464 23.9863 25.7233 21.9988C25.7873 21.9899 25.848 21.9474 25.8965 21.8775C25.9449 21.8077 25.9786 21.714 25.9927 21.6103C25.9929 21.6087 25.9931 21.607 25.9933 21.6053C25.9952 21.5911 25.9966 21.5768 25.9977 21.5623C25.998 21.5585 25.9982 21.5547 25.9984 21.5509C25.9992 21.5394 25.9997 21.5279 25.9999 21.5164C26 21.5087 26 21.501 25.9999 21.4934C25.9999 21.4852 25.9998 21.477 25.9996 21.4689C25.9991 21.4573 25.9983 21.4458 25.9974 21.4344C25.9971 21.4305 25.9968 21.4267 25.9964 21.4229C25.995 21.4074 25.9931 21.3921 25.9908 21.3769C25.9753 21.2757 25.9411 21.1851 25.893 21.1177C25.8448 21.0503 25.7851 21.0095 25.7223 21.0011C18.465 19.0135 14.6456 11.8304 13.3018 0.453446C13.2952 0.337743 13.2645 0.229442 13.2149 0.147142C13.1653 0.0648415 13.0999 0.0136988 13.0299 0.00250169C13.0291 0.00232872 13.0282 0.00217382 13.0273 0.00201355C13.0271 0.00201315 13.0269 0.00201315 13.0266 0.00201355C13.0209 0.00140475 13.0151 0.00106431 13.0093 0.00100678C13.0052 0.000537774 13.0011 0.000197396 12.9971 0L12.9971 0.00152542Z" fill="#FF5300"/>
<path d="M8.79963 20.32H7.09863V19.204H11.9496V20.32H10.2486V25H8.79963V20.32Z" fill="white"/>
<path d="M12.5036 19.204H13.7456L16.2116 22.669V19.204H17.6696V25H16.4186L13.9526 21.544V25H12.5036V19.204Z" fill="white"/>
</svg>
