<svg width="98" height="65" viewBox="0 0 98 65" fill="none" xmlns="http://www.w3.org/2000/svg">
<path d="M96.4688 64.3125H1.53125C0.6125 64.3125 0 63.7 0 62.7812V1.53125C0 0.6125 0.6125 0 1.53125 0H96.4688C97.3875 0 98 0.6125 98 1.53125V62.7812C98 63.7 97.3875 64.3125 96.4688 64.3125ZM3.0625 61.25H94.9375V3.0625H3.0625V61.25Z" fill="#011414"/>
<path d="M75.0312 64.3125C74.1125 64.3125 73.5 63.7 73.5 62.7812V1.53125C73.5 0.6125 74.1125 0 75.0312 0C75.95 0 76.5625 0.6125 76.5625 1.53125V62.7812C76.5625 63.7 75.95 64.3125 75.0312 64.3125Z" fill="#011414"/>
<path d="M68.9062 58.1875H7.65625C6.7375 58.1875 6.125 57.575 6.125 56.6562V7.65625C6.125 6.7375 6.7375 6.125 7.65625 6.125H68.9062C69.825 6.125 70.4375 6.7375 70.4375 7.65625V56.6562C70.4375 57.575 69.825 58.1875 68.9062 58.1875ZM9.1875 55.125H67.375V9.1875H9.1875V55.125Z" fill="#011414"/>
<path d="M85.75 18.375C82.3812 18.375 79.625 15.6187 79.625 12.25C79.625 8.88125 82.3812 6.125 85.75 6.125C89.1188 6.125 91.875 8.88125 91.875 12.25C91.875 15.6187 89.1188 18.375 85.75 18.375ZM85.75 9.1875C84.0656 9.1875 82.6875 10.5656 82.6875 12.25C82.6875 13.9344 84.0656 15.3125 85.75 15.3125C87.4344 15.3125 88.8125 13.9344 88.8125 12.25C88.8125 10.5656 87.4344 9.1875 85.75 9.1875Z" fill="#011414"/>
<path d="M85.75 32.1562C83.1469 32.1562 81.1562 30.1656 81.1562 27.5625C81.1562 24.9594 83.1469 22.9688 85.75 22.9688C88.3531 22.9688 90.3438 24.9594 90.3438 27.5625C90.3438 30.1656 88.3531 32.1562 85.75 32.1562ZM85.75 26.0312C84.8313 26.0312 84.2188 26.6437 84.2188 27.5625C84.2188 28.4813 84.8313 29.0938 85.75 29.0938C86.6687 29.0938 87.2812 28.4813 87.2812 27.5625C87.2812 26.6437 86.6687 26.0312 85.75 26.0312Z" fill="#011414"/>
<path d="M85.75 44.4062C83.1469 44.4062 81.1562 42.4156 81.1562 39.8125C81.1562 37.2094 83.1469 35.2188 85.75 35.2188C88.3531 35.2188 90.3438 37.2094 90.3438 39.8125C90.3438 42.4156 88.3531 44.4062 85.75 44.4062ZM85.75 38.2812C84.8313 38.2812 84.2188 38.8937 84.2188 39.8125C84.2188 40.7313 84.8313 41.3438 85.75 41.3438C86.6687 41.3438 87.2812 40.7313 87.2812 39.8125C87.2812 38.8937 86.6687 38.2812 85.75 38.2812Z" fill="#011414"/>
</svg>
