<svg width="95" height="98" viewBox="0 0 95 98" fill="none" xmlns="http://www.w3.org/2000/svg">
<path d="M42.9572 15.8711L36.8438 1.6263L40.5275 0L47.1503 15.3029L53.7534 0L57.4567 1.56752L51.3434 15.8711H84.6531C85.9379 15.774 87.2284 15.9559 88.4363 16.4043C89.6441 16.8528 90.7407 17.5571 91.6508 18.4691C92.561 19.3811 93.2631 20.4791 93.709 21.6879C94.155 22.8967 94.3343 24.1876 94.2346 25.4721V88.3492C94.3384 89.6406 94.1601 90.9392 93.7121 92.1549C93.264 93.3706 92.557 94.4743 91.6399 95.3895C90.7228 96.3047 89.6177 97.0095 88.4011 97.455C87.1845 97.9006 85.8856 98.0762 84.5943 97.9698H9.66703C8.37556 98.0698 7.07774 97.8891 5.86274 97.44C4.64775 96.9909 3.54438 96.2841 2.62843 95.3682C1.71249 94.4522 1.0057 93.3488 0.556603 92.1338C0.107511 90.9188 -0.0732303 89.621 0.0267981 88.3296V25.4721C-0.0713779 24.1795 0.112299 22.8809 0.565135 21.6662C1.01797 20.4515 1.72917 19.3495 2.64957 18.4366C3.56997 17.5236 4.67763 16.8214 5.896 16.3785C7.11437 15.9355 8.41439 15.7624 9.70621 15.8711H43.0159H42.9572ZM9.64743 19.9075C8.89465 19.8156 8.13084 19.8964 7.41389 20.1436C6.69694 20.3907 6.04566 20.7979 5.50941 21.3341C4.97317 21.8704 4.56603 22.5217 4.31884 23.2386C4.07166 23.9555 3.99092 24.7194 4.08275 25.4721V88.31C3.9756 89.089 4.05027 89.8823 4.30089 90.6277C4.55152 91.3731 4.9713 92.0503 5.52736 92.6064C6.08343 93.1624 6.76067 93.5822 7.50605 93.8329C8.25143 94.0835 9.04472 94.1581 9.82378 94.051H84.4963C85.2817 94.1456 86.0784 94.0568 86.8236 93.7914C87.5688 93.526 88.2423 93.0914 88.7911 92.5217C89.34 91.952 89.7491 91.2627 89.9865 90.5081C90.2238 89.7535 90.2829 88.9541 90.159 88.1728V25.6877C90.159 21.7689 88.1996 19.9075 84.2808 19.9075H9.64743Z" fill="#011414"/>
<path d="M47.0523 75.8679H17.9945C12.371 75.8679 8.90291 72.1842 8.90291 66.1689C8.90291 55.4836 8.90291 44.818 8.90291 34.1719C8.90291 28.2938 12.3906 24.5709 17.9161 24.5709H76.3061C81.8316 24.5709 85.3585 28.2938 85.3781 34.1719V66.1493C85.3781 72.145 81.8512 75.9463 76.2473 75.9463L47.0523 75.8679ZM18.0337 28.6073C14.4676 28.6073 12.6845 30.5667 12.6649 34.3287V66.1297C12.6649 69.9113 14.5068 71.8119 18.0729 71.8119H76.1494C79.7743 71.8119 81.5965 69.8525 81.5965 65.9337V34.3483C81.5965 30.5667 79.7743 28.6073 76.2473 28.6073H18.0337Z" fill="#011414"/>
<path d="M37.7059 34.8769L64.2753 50.2189L37.7059 65.561V34.8769ZM57.2999 50.2189L41.1741 40.8726V59.5653L57.2999 50.2189Z" fill="#011414"/>
<path d="M79.0101 79.4923H69.9969C69.3837 79.4923 68.7956 79.7359 68.362 80.1695C67.9284 80.6031 67.6848 81.1912 67.6848 81.8044V85.5273C67.6848 86.1405 67.9284 86.7286 68.362 87.1622C68.7956 87.5958 69.3837 87.8394 69.9969 87.8394H79.0101C79.6233 87.8394 80.2114 87.5958 80.645 87.1622C81.0786 86.7286 81.3222 86.1405 81.3222 85.5273V81.8044C81.3222 81.1912 81.0786 80.6031 80.645 80.1695C80.2114 79.7359 79.6233 79.4923 79.0101 79.4923ZM78.5986 84.2537C78.5986 84.5551 78.4789 84.8441 78.2658 85.0573C78.0526 85.2704 77.7636 85.3901 77.4622 85.3901H71.584C71.2826 85.3901 70.9935 85.2704 70.7804 85.0573C70.5673 84.8441 70.4475 84.5551 70.4475 84.2537V83.078C70.4527 82.78 70.5747 82.496 70.7872 82.2871C70.9998 82.0782 71.2859 81.9611 71.584 81.9612H77.4622C77.7602 81.9611 78.0463 82.0782 78.2589 82.2871C78.4715 82.496 78.5935 82.78 78.5986 83.078V84.2537Z" fill="#011414"/>
</svg>
