<svg width="98" height="76" viewBox="0 0 98 76" fill="none" xmlns="http://www.w3.org/2000/svg">
<path d="M24.9333 35.4667C24.9333 35.633 24.966 35.7978 25.0297 35.9515C25.0933 36.1051 25.1866 36.2448 25.3042 36.3624C25.4219 36.4801 25.5615 36.5734 25.7152 36.637C25.8689 36.7006 26.0336 36.7334 26.2 36.7333H38.8667C39.033 36.7334 39.1978 36.7006 39.3515 36.637C39.5052 36.5734 39.6448 36.4801 39.7624 36.3624C39.8801 36.2448 39.9734 36.1051 40.037 35.9515C40.1006 35.7978 40.1334 35.633 40.1333 35.4667V30.4C40.1334 30.2336 40.1006 30.0689 40.037 29.9152C39.9734 29.7615 39.8801 29.6219 39.7624 29.5042C39.6448 29.3866 39.5052 29.2933 39.3515 29.2297C39.1978 29.166 39.033 29.1333 38.8667 29.1333H26.2C26.0336 29.1333 25.8689 29.166 25.7152 29.2297C25.5615 29.2933 25.4219 29.3866 25.3042 29.5042C25.1866 29.6219 25.0933 29.7615 25.0297 29.9152C24.966 30.0689 24.9333 30.2336 24.9333 30.4V35.4667ZM27.4667 31.6667H37.6V34.2H27.4667V31.6667Z" fill="#011414"/>
<path d="M55.3333 46.8667V41.8C55.3334 41.6336 55.3007 41.4689 55.237 41.3152C55.1734 41.1615 55.0801 41.0219 54.9624 40.9042C54.8448 40.7866 54.7052 40.6933 54.5515 40.6297C54.3978 40.566 54.233 40.5333 54.0667 40.5333H26.2C26.0336 40.5333 25.8689 40.566 25.7152 40.6297C25.5615 40.6933 25.4219 40.7866 25.3042 40.9042C25.1866 41.0219 25.0933 41.1615 25.0297 41.3152C24.966 41.4689 24.9333 41.6336 24.9333 41.8V46.8667C24.9333 47.033 24.966 47.1978 25.0297 47.3515C25.0933 47.5051 25.1866 47.6448 25.3042 47.7624C25.4219 47.8801 25.5615 47.9734 25.7152 48.037C25.8689 48.1006 26.0336 48.1334 26.2 48.1333H54.0667C54.233 48.1334 54.3978 48.1006 54.5515 48.037C54.7052 47.9734 54.8448 47.8801 54.9624 47.7624C55.0801 47.6448 55.1734 47.5051 55.237 47.3515C55.3007 47.1978 55.3334 47.033 55.3333 46.8667ZM52.8 45.6H27.4667V43.0667H52.8V45.6Z" fill="#011414"/>
<path d="M26.2 51.9333C26.0336 51.9333 25.8689 51.966 25.7152 52.0297C25.5615 52.0933 25.4219 52.1866 25.3042 52.3042C25.1866 52.4219 25.0933 52.5615 25.0297 52.7152C24.966 52.8689 24.9333 53.0336 24.9333 53.2V58.2667C24.9333 58.433 24.966 58.5978 25.0297 58.7515C25.0933 58.9052 25.1866 59.0448 25.3042 59.1624C25.4219 59.2801 25.5615 59.3734 25.7152 59.437C25.8689 59.5006 26.0336 59.5334 26.2 59.5333H47.7333C47.8997 59.5334 48.0644 59.5006 48.2181 59.437C48.3718 59.3734 48.5115 59.2801 48.6291 59.1624C48.7467 59.0448 48.84 58.9052 48.9037 58.7515C48.9673 58.5978 49 58.433 49 58.2667V53.2C49 53.0336 48.9673 52.8689 48.9037 52.7152C48.84 52.5615 48.7467 52.4219 48.6291 52.3042C48.5115 52.1866 48.3718 52.0933 48.2181 52.0297C48.0644 51.966 47.8997 51.9333 47.7333 51.9333H26.2ZM46.4667 57H27.4667V54.4667H46.4667V57Z" fill="#011414"/>
<path d="M17.3333 68.4H57.4569C58.2553 70.3989 59.5733 72.1482 61.2747 73.4667H60.4C60.0683 73.4731 59.7524 73.6095 59.5201 73.8463C59.2879 74.0831 59.1578 74.4016 59.1578 74.7334C59.1578 75.0651 59.2879 75.3836 59.5202 75.6204C59.7525 75.8573 60.0684 75.9935 60.4 76H76.8667C77.1983 75.9935 77.5142 75.8572 77.7465 75.6204C77.9788 75.3835 78.1089 75.065 78.1088 74.7333C78.1088 74.4016 77.9787 74.0831 77.7464 73.8462C77.5142 73.6094 77.1983 73.4731 76.8666 73.4667H75.992C77.2864 72.4674 78.3633 71.2145 79.1568 69.7847C79.9503 68.3548 80.4437 66.7781 80.6067 65.1509C87.9662 64.9955 90.0596 51.7947 80.6667 54.9516C80.616 53.8615 81.0481 51.9965 79.4 51.9334H57.8667C57.7003 51.9333 57.5356 51.966 57.3819 52.0297C57.2282 52.0933 57.0885 52.1866 56.9709 52.3043C56.8533 52.4219 56.76 52.5615 56.6963 52.7152C56.6327 52.8689 56.6 53.0337 56.6 53.2C56.648 54.569 56.4532 64.7541 56.765 65.8667H21.1333V5.06667C21.1341 4.39502 21.4013 3.7511 21.8762 3.27618C22.3511 2.80125 22.995 2.5341 23.6667 2.53333H69.2667C69.9383 2.5341 70.5822 2.80125 71.0572 3.27618C71.5321 3.7511 71.7992 4.39502 71.8 5.06667V24.0667C71.8052 24.3992 71.9409 24.7164 72.1779 24.9497C72.4149 25.1831 72.7341 25.3138 73.0667 25.3138C73.3993 25.3138 73.7185 25.183 73.9555 24.9497C74.1925 24.7163 74.3282 24.3991 74.3333 24.0666V5.06667C74.3319 3.72334 73.7976 2.43544 72.8478 1.48557C71.8979 0.535695 70.61 0.00142836 69.2667 0H23.6667C22.3233 0.00143171 21.0354 0.5357 20.0856 1.48557C19.1357 2.43545 18.6014 3.72334 18.6 5.06667V34.2H12.2667C12.1003 34.2 11.9356 34.2327 11.7819 34.2963C11.6282 34.36 11.4885 34.4533 11.3709 34.5709C11.2533 34.6885 11.16 34.8282 11.0963 34.9819C11.0327 35.1356 11 35.3003 11 35.4667V62.0667C11.002 63.7458 11.6699 65.3555 12.8572 66.5428C14.0445 67.7301 15.6542 68.398 17.3333 68.4ZM81.1268 57.4763C82.0241 57.0413 83.04 56.9152 84.0164 57.1175C85.5984 59.4055 82.5451 62.6483 80.668 62.6295L80.6667 57.5561C80.8237 57.5585 80.9798 57.5314 81.1268 57.4763ZM59.1333 54.4667H78.1333V63.9667C78.1333 66.4862 77.1324 68.9026 75.3509 70.6842C73.5693 72.4658 71.1529 73.4667 68.6333 73.4667C66.1138 73.4667 63.6974 72.4658 61.9158 70.6842C60.1342 68.9026 59.1333 66.4862 59.1333 63.9667V54.4667ZM13.5333 36.7333H18.6V65.8667H17.3333C16.3258 65.8656 15.3599 65.4649 14.6475 64.7525C13.9351 64.0401 13.5344 63.0742 13.5333 62.0667V36.7333Z" fill="#011414"/>
<path d="M71.0477 28.1191C70.779 28.3194 70.6003 28.6177 70.5505 28.9491C70.5007 29.2805 70.5838 29.6182 70.7817 29.8886C71.6708 31.1948 72.0457 32.7835 71.8345 34.3494C71.6233 35.9153 70.8409 37.3478 69.6375 38.3718C63.7433 44.266 68.3239 48.9827 68.3709 49.0297C68.4885 49.1473 68.6281 49.2406 68.7818 49.3042C68.9354 49.3679 69.1001 49.4006 69.2665 49.4006C69.4328 49.4006 69.5975 49.3679 69.7511 49.3042C69.9048 49.2406 70.0444 49.1473 70.162 49.0297C70.2797 48.9121 70.3729 48.7724 70.4366 48.6188C70.5003 48.4651 70.533 48.3004 70.533 48.1341C70.533 47.9678 70.5003 47.8031 70.4366 47.6494C70.373 47.4957 70.2797 47.3561 70.1621 47.2385C70.0433 47.1198 67.3046 44.2865 71.4287 40.163C73.07 38.7128 74.1187 36.7082 74.3741 34.533C74.6294 32.3578 74.0736 30.1649 72.8129 28.3739C72.6122 28.1067 72.3138 27.9299 71.9829 27.8821C71.6521 27.8344 71.3159 27.9196 71.0477 28.1191Z" fill="#011414"/>
<path d="M73.7901 46.8628C74.3117 48.8558 75.3819 50.0641 76.6883 49.0295C76.9259 48.7918 77.0594 48.4696 77.0594 48.1335C77.0594 47.7975 76.9259 47.4752 76.6883 47.2376C76.4817 46.9844 76.3395 46.685 76.2739 46.3649C76.2334 45.8595 76.3195 45.352 76.5244 44.8883C76.7294 44.4246 77.0468 44.0193 77.4478 43.7091C78.5201 42.7535 79.2025 41.4361 79.3643 40.0089C79.5261 38.5817 79.156 37.145 78.3248 35.9736C78.1205 35.7148 77.8234 35.5457 77.4966 35.5024C77.1697 35.4591 76.8388 35.5448 76.5742 35.7415C76.3095 35.9381 76.1319 36.2302 76.0791 36.5557C76.0263 36.8812 76.1024 37.2144 76.2913 37.4847C76.758 38.1695 76.9517 39.0041 76.8342 39.8245C76.7168 40.6448 76.2968 41.3916 75.6567 41.918C74.9446 42.5105 74.3984 43.2776 74.0712 44.1442C73.7441 45.0109 73.6472 45.9475 73.7901 46.8628Z" fill="#011414"/>
<path d="M65.0199 35.9733C64.8156 35.7146 64.5185 35.5457 64.1917 35.5024C63.8649 35.4591 63.5341 35.5449 63.2695 35.7415C63.0049 35.9381 62.8273 36.2301 62.7744 36.5555C62.7216 36.8809 62.7976 37.2141 62.9863 37.4843C63.4531 38.1691 63.6468 39.0038 63.5293 39.8241C63.4119 40.6445 62.9918 41.3913 62.3517 41.9177C61.6397 42.5102 61.0935 43.2772 60.7663 44.1439C60.4391 45.0106 60.3423 45.9472 60.4851 46.8625C61.0067 48.8554 62.077 50.0638 63.3833 49.0291C63.6209 48.7915 63.7544 48.4692 63.7544 48.1332C63.7544 47.7971 63.6209 47.4748 63.3833 47.2372C63.1768 46.984 63.0346 46.6846 62.9689 46.3645C62.9284 45.8591 63.0145 45.3516 63.2195 44.8879C63.4245 44.4242 63.7418 44.0189 64.1428 43.7087C65.2152 42.7531 65.8975 41.4357 66.0593 40.0086C66.2211 38.5814 65.851 37.1447 65.0199 35.9733Z" fill="#011414"/>
<path d="M65.4395 21.2093H28.2484C28.0821 21.2093 27.9174 21.1766 27.7637 21.1129C27.61 21.0493 27.4703 20.956 27.3527 20.8383C27.235 20.7207 27.1417 20.5811 27.0781 20.4274C27.0145 20.2737 26.9817 20.1089 26.9818 19.9426V11.1031C26.9817 10.9368 27.0145 10.772 27.0781 10.6183C27.1417 10.4646 27.235 10.325 27.3527 10.2074C27.4703 10.0897 27.61 9.99643 27.7637 9.93279C27.9174 9.86915 28.0821 9.83642 28.2484 9.83646H65.4395C65.6058 9.83642 65.7705 9.86915 65.9242 9.93279C66.0779 9.99643 66.2176 10.0897 66.3352 10.2074C66.4529 10.325 66.5462 10.4646 66.6098 10.6183C66.6734 10.772 66.7062 10.9368 66.7061 11.1031V19.9426C66.7062 20.1089 66.6734 20.2737 66.6098 20.4274C66.5462 20.5811 66.4529 20.7207 66.3352 20.8383C66.2176 20.956 66.0779 21.0493 65.9242 21.1129C65.7705 21.1766 65.6058 21.2093 65.4395 21.2093ZM29.5151 18.6759H64.1728V12.3698H29.5151V18.6759Z" fill="#011414"/>
</svg>
