<svg width="65" height="68" viewBox="0 0 65 68" fill="none" xmlns="http://www.w3.org/2000/svg">
<path d="M46.2529 67H4.2036C2.19781 67 1 64.8715 1 62.8141V36.2872C1 34.3813 2.16716 33.2887 4.2036 33.2887H46.2529C49.0045 33.2887 49.4148 35.1677 49.4148 36.2872V62.8141C49.4148 64.8723 48.2327 67 46.2529 67ZM2.92483 45.4468V62.8149C2.92483 63.8775 3.47187 65.0665 4.2036 65.0665H46.2529C46.9602 65.0665 47.49 63.8783 47.49 62.8149V45.4468H2.92483ZM2.92483 43.5126H47.49V36.2879C47.49 35.564 47.3682 35.2237 46.2529 35.2237H4.2036C3.01365 35.2237 2.92483 35.6453 2.92483 36.2879V43.5126ZM43.7763 61.7499H26.9951C26.463 61.7499 26.0323 61.3172 26.0323 60.7827C26.0323 60.2483 26.463 59.8156 26.9951 59.8156H43.7763C44.3084 59.8156 44.7391 60.2483 44.7391 60.7827C44.7391 61.3172 44.3076 61.7499 43.7763 61.7499ZM18.4673 61.1972H8.28906C7.75696 61.1972 7.32625 60.7646 7.32625 60.2301V50.2825C7.32625 49.748 7.75696 49.3154 8.28906 49.3154H18.4673C18.9994 49.3154 19.4302 49.748 19.4302 50.2825V60.2301C19.4302 60.7646 18.9994 61.1972 18.4673 61.1972ZM9.25187 59.263H17.5053V51.2496H9.25187V59.263ZM43.7763 56.4997H26.9951C26.463 56.4997 26.0323 56.0671 26.0323 55.5326C26.0323 54.9981 26.463 54.5655 26.9951 54.5655H43.7763C44.3084 54.5655 44.7391 54.9981 44.7391 55.5326C44.7391 56.0671 44.3076 56.4997 43.7763 56.4997ZM43.7763 51.2496H26.9951C26.463 51.2496 26.0323 50.817 26.0323 50.2825C26.0323 49.748 26.463 49.3154 26.9951 49.3154H43.7763C44.3084 49.3154 44.7391 49.748 44.7391 50.2825C44.7391 50.817 44.3076 51.2496 43.7763 51.2496ZM52.5029 45.1571C52.3072 45.1571 52.1099 45.0971 51.9394 44.9739C51.5086 44.6613 51.412 44.0565 51.7232 43.6239L56.751 36.6377L20.5486 10.7518L10.2744 25.3298C10.0308 25.674 9.92781 26.169 10.0048 26.6238C10.0858 27.1006 10.3601 27.5775 10.6886 27.812L13.1291 29.6412C13.555 29.961 13.6431 30.5665 13.3248 30.9944C13.0072 31.4223 12.4028 31.5107 11.9776 31.1918L9.55604 29.3767C8.82274 28.8557 8.27413 27.9422 8.10515 26.9482C7.94088 25.9772 8.15859 24.9793 8.70248 24.2111L23.9809 2.51267C24.6498 1.56449 25.743 1 26.9063 1C27.6506 1 28.3635 1.22816 28.9687 1.66002L62.6262 25.6487C63.4011 26.2006 63.9175 27.028 64.0786 27.9777C64.239 28.9251 64.0244 29.8773 63.4734 30.6573L53.2834 44.7576C53.0955 45.0182 52.8016 45.1571 52.5029 45.1571ZM21.6647 9.17519L57.8813 35.0705L61.9117 29.5267C62.1569 29.1794 62.2552 28.7404 62.1805 28.3014C62.1058 27.8617 61.8693 27.4796 61.5132 27.2261L27.8549 3.23663C27.1389 2.72583 26.0559 2.91847 25.5536 3.62901L21.6647 9.17519Z" fill="#808989"/>
<path fill-rule="evenodd" clip-rule="evenodd" d="M51.6466 45.3793L51.6456 45.3786C50.9914 44.9037 50.8458 43.9873 51.3173 43.3319L56.0522 36.7527L20.6673 11.4513L10.6825 25.6187C10.523 25.844 10.4406 26.2022 10.4978 26.5401C10.5613 26.9144 10.7791 27.2622 10.9791 27.405L10.9886 27.4118L13.4289 29.2411C14.0749 29.726 14.2086 30.6437 13.7261 31.2926C13.2439 31.9421 12.3252 32.0775 11.6776 31.5918L9.26103 29.7805C8.41022 29.1734 7.80034 28.1386 7.61222 27.0321C7.42709 25.9376 7.67004 24.8045 8.29385 23.923C8.29404 23.9227 8.29366 23.9232 8.29385 23.923L23.5721 2.2248C24.3351 1.14311 25.5814 0.5 26.9063 0.5C27.7546 0.5 28.569 0.760611 29.2591 1.25301L62.9162 25.2415C63.8003 25.8711 64.3886 26.8155 64.5716 27.8941C64.7538 28.9706 64.5097 30.0568 63.8818 30.9458L63.8787 30.9502L53.6889 45.05C53.4034 45.446 52.9558 45.6571 52.5029 45.6571C52.2045 45.6571 51.9043 45.5654 51.6466 45.3793ZM53.2834 44.7576L63.4734 30.6573C64.0244 29.8773 64.239 28.9251 64.0786 27.9777C63.9175 27.028 63.4011 26.2006 62.6262 25.6487L28.9687 1.66002C28.3635 1.22816 27.6506 1 26.9063 1C25.743 1 24.6498 1.56449 23.9809 2.51267L8.70248 24.2111C8.15859 24.9793 7.94088 25.9772 8.10515 26.9482C8.27413 27.9422 8.82274 28.8557 9.55604 29.3767L11.9776 31.1918C12.4028 31.5107 13.0072 31.4223 13.3248 30.9944C13.6431 30.5665 13.555 29.961 13.1291 29.6412L10.6886 27.812C10.3601 27.5775 10.0858 27.1006 10.0048 26.6238C9.92781 26.169 10.0308 25.674 10.2744 25.3298L20.5486 10.7518L56.751 36.6377L51.7232 43.6239C51.412 44.0565 51.5086 44.6613 51.9394 44.9739C52.1099 45.0971 52.3072 45.1571 52.5029 45.1571C52.8016 45.1571 53.0955 45.0182 53.2834 44.7576ZM61.5132 27.2261L27.8549 3.23663C27.1389 2.72583 26.0559 2.91847 25.5536 3.62901L21.6647 9.17519L57.8813 35.0705L61.9117 29.5267C62.1569 29.1794 62.2552 28.7404 62.1805 28.3014C62.1058 27.8617 61.8693 27.4796 61.5132 27.2261ZM61.5032 29.2384L57.7686 34.3753L22.3585 9.05662L25.9619 3.91761C25.9618 3.91781 25.9621 3.91741 25.9619 3.91761C26.3063 3.43124 27.0767 3.29566 27.5646 3.64367L61.223 27.6333C61.4683 27.8079 61.6344 28.0723 61.6876 28.3851C61.7406 28.6969 61.6702 29.0002 61.5051 29.2357C61.5045 29.2366 61.5039 29.2375 61.5032 29.2384ZM46.2529 67.5H4.2036C3.00131 67.5 2.06053 66.8555 1.43945 65.9645C0.823589 65.081 0.5 63.9317 0.5 62.8141V36.2872C0.5 35.2302 0.826501 34.3353 1.49645 33.7082C2.16166 33.0855 3.09965 32.7887 4.2036 32.7887H46.2529C47.7553 32.7887 48.7106 33.31 49.2691 34.0727C49.8064 34.8063 49.9148 35.6811 49.9148 36.2872V62.8141C49.9148 63.9307 49.5959 65.0791 48.9882 65.9623C48.3755 66.8527 47.4451 67.5 46.2529 67.5ZM3.42483 45.9468V62.8149C3.42483 63.2701 3.54411 63.7517 3.73148 64.1048C3.93504 64.4884 4.12546 64.5665 4.2036 64.5665H46.2529C46.3104 64.5665 46.4919 64.5005 46.6919 64.1111C46.8738 63.7569 46.99 63.2732 46.99 62.8149V45.9468H3.42483ZM2.92483 62.8149C2.92483 63.8775 3.47187 65.0665 4.2036 65.0665H46.2529C46.9602 65.0665 47.49 63.8783 47.49 62.8149V45.4468H2.92483V62.8149ZM47.49 36.2879C47.49 35.564 47.3682 35.2237 46.2529 35.2237H4.2036C3.01365 35.2237 2.92483 35.6453 2.92483 36.2879V43.5126H47.49V36.2879ZM46.99 43.0126V36.2879C46.99 35.9064 46.9426 35.8447 46.9303 35.832C46.9164 35.8176 46.802 35.7237 46.2529 35.7237H4.2036C3.63213 35.7237 3.50488 35.8328 3.48587 35.8534C3.46333 35.8779 3.42483 35.9469 3.42483 36.2879V43.0126H46.99ZM43.7763 62.2499H26.9951C26.1847 62.2499 25.5323 61.5913 25.5323 60.7827C25.5323 59.9742 26.1847 59.3156 26.9951 59.3156H43.7763C44.5866 59.3156 45.2391 59.9742 45.2391 60.7827C45.2391 61.5915 44.5856 62.2499 43.7763 62.2499ZM18.4673 61.6972H8.28906C7.47871 61.6972 6.82625 61.0386 6.82625 60.2301V50.2825C6.82625 49.474 7.47872 48.8154 8.28906 48.8154H18.4673C19.2777 48.8154 19.9302 49.474 19.9302 50.2825V60.2301C19.9302 61.0386 19.2777 61.6972 18.4673 61.6972ZM17.5053 59.263H9.25187V51.2496H17.5053V59.263ZM17.0053 51.7496H9.75187V58.763H17.0053V51.7496ZM43.7763 56.9997H26.9951C26.1847 56.9997 25.5323 56.3411 25.5323 55.5326C25.5323 54.7241 26.1847 54.0655 26.9951 54.0655H43.7763C44.5866 54.0655 45.2391 54.7241 45.2391 55.5326C45.2391 56.3414 44.5856 56.9997 43.7763 56.9997ZM43.7763 51.7496H26.9951C26.1847 51.7496 25.5323 51.091 25.5323 50.2825C25.5323 49.474 26.1847 48.8154 26.9951 48.8154H43.7763C44.5866 48.8154 45.2391 49.474 45.2391 50.2825C45.2391 51.0913 44.5856 51.7496 43.7763 51.7496ZM4.2036 67H46.2529C48.2327 67 49.4148 64.8723 49.4148 62.8141V36.2872C49.4148 35.1677 49.0045 33.2887 46.2529 33.2887H4.2036C2.16716 33.2887 1 34.3813 1 36.2872V62.8141C1 64.8715 2.19781 67 4.2036 67ZM26.9951 61.7499H43.7763C44.3076 61.7499 44.7391 61.3172 44.7391 60.7827C44.7391 60.2483 44.3084 59.8156 43.7763 59.8156H26.9951C26.463 59.8156 26.0323 60.2483 26.0323 60.7827C26.0323 61.3172 26.463 61.7499 26.9951 61.7499ZM8.28906 61.1972H18.4673C18.9994 61.1972 19.4302 60.7646 19.4302 60.2301V50.2825C19.4302 49.748 18.9994 49.3154 18.4673 49.3154H8.28906C7.75696 49.3154 7.32625 49.748 7.32625 50.2825V60.2301C7.32625 60.7646 7.75696 61.1972 8.28906 61.1972ZM26.9951 56.4997H43.7763C44.3076 56.4997 44.7391 56.0671 44.7391 55.5326C44.7391 54.9981 44.3084 54.5655 43.7763 54.5655H26.9951C26.463 54.5655 26.0323 54.9981 26.0323 55.5326C26.0323 56.0671 26.463 56.4997 26.9951 56.4997ZM26.9951 51.2496H43.7763C44.3076 51.2496 44.7391 50.817 44.7391 50.2825C44.7391 49.748 44.3084 49.3154 43.7763 49.3154H26.9951C26.463 49.3154 26.0323 49.748 26.0323 50.2825C26.0323 50.817 26.463 51.2496 26.9951 51.2496Z" fill="#808989"/>
</svg>
