<svg width="33" height="32" viewBox="0 0 33 32" fill="none" xmlns="http://www.w3.org/2000/svg">
<path d="M31.5 22C31.5 22.497 31.0973 22.8997 30.6003 22.8997H27.0017C26.5047 22.8997 26.102 22.497 26.102 22C26.102 21.503 26.5047 21.1003 27.0017 21.1003H29.6713C29.471 18.136 28.288 15.439 26.4437 13.3293L24.561 15.2097C24.3857 15.3873 24.156 15.475 23.9267 15.475C23.695 15.475 23.4657 15.3873 23.29 15.2097C22.937 14.8587 22.937 14.2897 23.29 13.939L25.1703 12.0563C23.0607 10.2143 20.3637 9.031 17.3993 8.831V11.4987C17.3993 11.9957 16.9967 12.3983 16.4997 12.3983C16.0027 12.3983 15.6 11.9957 15.6 11.4987V8.831C12.6357 9.03133 9.93633 10.2143 7.829 12.0563L15.7867 20.014C16.0093 19.933 16.25 19.8903 16.4997 19.8903C17.6623 19.8903 18.6093 20.8373 18.6093 22C18.6093 23.1627 17.663 24.1073 16.5 24.1073C15.337 24.1073 14.3923 23.1627 14.3923 21.9997C14.3923 21.75 14.435 21.5117 14.516 21.289L6.55833 13.329C4.714 15.4387 3.531 18.1357 3.33067 21.1H5.99833C6.49533 21.1 6.898 21.5027 6.898 21.9997C6.898 22.4967 6.49533 22.8993 5.99833 22.8993H2.39967C1.905 22.8997 1.5 22.497 1.5 22C1.5 17.9043 3.151 14.184 5.82533 11.476C5.877 11.422 5.92867 11.368 5.985 11.3163C8.693 8.64633 12.4063 7 16.5 7C20.5913 7 24.3027 8.64633 27.0107 11.3117C27.013 11.3117 27.013 11.314 27.013 11.314C27.0737 11.3703 27.1343 11.431 27.1907 11.4917C27.1907 11.4917 27.193 11.4917 27.193 11.494C29.8557 14.202 31.5 17.913 31.5 22Z" fill="#808989"/>
</svg>
