<svg width="65" height="68" viewBox="0 0 65 68" fill="none" xmlns="http://www.w3.org/2000/svg">
<mask id="path-1-outside-1_1461_22198" maskUnits="userSpaceOnUse" x="0" y="0" width="65" height="68" fill="black">
<rect fill="white" width="65" height="68"/>
<path fill-rule="evenodd" clip-rule="evenodd" d="M62.8927 59.7813H55.4664V2.03124C55.4664 1.75775 55.336 1.49545 55.1039 1.30205C54.8717 1.10866 54.5569 1 54.2287 1H2.24396C1.91573 1 1.60084 1.10866 1.36874 1.30205C1.13665 1.49545 1.00626 1.75775 1.00626 2.03124V60.8125C0.997913 60.8811 0.997913 60.9502 1.00626 61.0188C1.50134 63.0812 3.69207 67 8.43265 67H54.2287C64.019 67 64.1304 60.8744 64.1304 60.8125C64.1304 60.539 64 60.2767 63.768 60.0833C63.5359 59.8899 63.221 59.7813 62.8927 59.7813ZM8.43265 64.9375C4.83085 64.9375 3.65494 61.3384 3.48166 60.6991V8.21875H41.8514V6.15626H3.48166V3.06251H52.9909V59.7813H14.6212C14.3317 59.7764 14.0493 59.8563 13.8231 60.007C13.5969 60.1578 13.4414 60.3698 13.3835 60.6063C13.3835 60.6063 12.3191 64.9375 8.43265 64.9375ZM54.2287 64.9375H13.5568C14.4655 64.026 15.151 62.9749 15.5744 61.8438H61.3704C60.8877 63.0709 59.2786 64.9375 54.2287 64.9375ZM46.8 6.15644H44.3245V8.21895H46.8V6.15644ZM49.2756 31.9377V38.1252C49.2756 38.3987 49.1452 38.661 48.9131 38.8544C48.6809 39.0478 48.3661 39.1565 48.0379 39.1565H8.43044C8.10221 39.1565 7.78741 39.0478 7.55522 38.8544C7.32313 38.661 7.19274 38.3987 7.19274 38.1252V31.9377C7.19274 31.6642 7.32313 31.4019 7.55522 31.2085C7.78741 31.0151 8.10221 30.9064 8.43044 30.9064H48.0379C48.3661 30.9064 48.6809 31.0151 48.9131 31.2085C49.1452 31.4019 49.2756 31.6642 49.2756 31.9377ZM9.66823 37.094H46.8002V32.969H9.66823V37.094ZM49.2754 43.2811H17.0943V45.3436H49.2754V43.2811ZM17.0943 48.4376H49.2754V50.5001H17.0943V48.4376ZM49.2754 53.594H17.0943V55.6565H49.2754V53.594ZM7.19274 45.3436V43.2811H9.66823V45.3436H7.19274ZM14.6206 43.2811H12.1451V45.3436H14.6206V43.2811ZM25.7599 22.6563H30.7107C31.0391 22.6563 31.3539 22.5476 31.586 22.3542C31.8181 22.1608 31.9485 21.8985 31.9485 21.625C31.9485 21.3515 31.8181 21.0892 31.586 20.8958C31.3539 20.7024 31.0391 20.5938 30.7107 20.5938H25.7599C24.7751 20.5938 23.8306 20.2678 23.1342 19.6877C22.4378 19.1075 22.0467 18.3205 22.0467 17.5C22.0467 16.6795 22.4378 15.8926 23.1342 15.3124C23.8306 14.7322 24.7751 14.4063 25.7599 14.4063H26.9976V12.3438H29.473V14.4063H30.7107C31.6955 14.4063 32.64 14.7322 33.3364 15.3124C34.0328 15.8926 34.4239 16.6795 34.4239 17.5H31.9485C31.9485 17.2265 31.8181 16.9642 31.586 16.7708C31.3539 16.5774 31.0391 16.4688 30.7107 16.4688H25.7599C25.4316 16.4688 25.1167 16.5774 24.8846 16.7708C24.6525 16.9642 24.5222 17.2265 24.5222 17.5C24.5222 17.7735 24.6525 18.0358 24.8846 18.2292C25.1167 18.4226 25.4316 18.5313 25.7599 18.5313H30.7107C31.6955 18.5313 32.64 18.8572 33.3364 19.4374C34.0328 20.0176 34.4239 20.8045 34.4239 21.625C34.4239 22.4455 34.0328 23.2324 33.3364 23.8126C32.64 24.3928 31.6955 24.7188 30.7107 24.7188H29.473V26.7813H26.9976V24.7188H25.7599C24.7751 24.7188 23.8306 24.3928 23.1342 23.8126C22.4378 23.2324 22.0467 22.4455 22.0467 21.625H24.5222C24.5222 21.8985 24.6525 22.1608 24.8846 22.3542C25.1167 22.5476 25.4316 22.6563 25.7599 22.6563ZM9.66823 13.3747H13.3814V11.3122H8.43044C8.10221 11.3122 7.78741 11.4209 7.55522 11.6143C7.32313 11.8077 7.19274 12.07 7.19274 12.3435V15.4372H9.66823V13.3747ZM49.2758 23.6876V26.7813C49.2758 27.0548 49.1455 27.3171 48.9133 27.5105C48.6812 27.7039 48.3664 27.8126 48.038 27.8126H43.0872V25.7501H46.8004V23.6876H49.2758Z"/>
</mask>
<path fill-rule="evenodd" clip-rule="evenodd" d="M62.8927 59.7813H55.4664V2.03124C55.4664 1.75775 55.336 1.49545 55.1039 1.30205C54.8717 1.10866 54.5569 1 54.2287 1H2.24396C1.91573 1 1.60084 1.10866 1.36874 1.30205C1.13665 1.49545 1.00626 1.75775 1.00626 2.03124V60.8125C0.997913 60.8811 0.997913 60.9502 1.00626 61.0188C1.50134 63.0812 3.69207 67 8.43265 67H54.2287C64.019 67 64.1304 60.8744 64.1304 60.8125C64.1304 60.539 64 60.2767 63.768 60.0833C63.5359 59.8899 63.221 59.7813 62.8927 59.7813ZM8.43265 64.9375C4.83085 64.9375 3.65494 61.3384 3.48166 60.6991V8.21875H41.8514V6.15626H3.48166V3.06251H52.9909V59.7813H14.6212C14.3317 59.7764 14.0493 59.8563 13.8231 60.007C13.5969 60.1578 13.4414 60.3698 13.3835 60.6063C13.3835 60.6063 12.3191 64.9375 8.43265 64.9375ZM54.2287 64.9375H13.5568C14.4655 64.026 15.151 62.9749 15.5744 61.8438H61.3704C60.8877 63.0709 59.2786 64.9375 54.2287 64.9375ZM46.8 6.15644H44.3245V8.21895H46.8V6.15644ZM49.2756 31.9377V38.1252C49.2756 38.3987 49.1452 38.661 48.9131 38.8544C48.6809 39.0478 48.3661 39.1565 48.0379 39.1565H8.43044C8.10221 39.1565 7.78741 39.0478 7.55522 38.8544C7.32313 38.661 7.19274 38.3987 7.19274 38.1252V31.9377C7.19274 31.6642 7.32313 31.4019 7.55522 31.2085C7.78741 31.0151 8.10221 30.9064 8.43044 30.9064H48.0379C48.3661 30.9064 48.6809 31.0151 48.9131 31.2085C49.1452 31.4019 49.2756 31.6642 49.2756 31.9377ZM9.66823 37.094H46.8002V32.969H9.66823V37.094ZM49.2754 43.2811H17.0943V45.3436H49.2754V43.2811ZM17.0943 48.4376H49.2754V50.5001H17.0943V48.4376ZM49.2754 53.594H17.0943V55.6565H49.2754V53.594ZM7.19274 45.3436V43.2811H9.66823V45.3436H7.19274ZM14.6206 43.2811H12.1451V45.3436H14.6206V43.2811ZM25.7599 22.6563H30.7107C31.0391 22.6563 31.3539 22.5476 31.586 22.3542C31.8181 22.1608 31.9485 21.8985 31.9485 21.625C31.9485 21.3515 31.8181 21.0892 31.586 20.8958C31.3539 20.7024 31.0391 20.5938 30.7107 20.5938H25.7599C24.7751 20.5938 23.8306 20.2678 23.1342 19.6877C22.4378 19.1075 22.0467 18.3205 22.0467 17.5C22.0467 16.6795 22.4378 15.8926 23.1342 15.3124C23.8306 14.7322 24.7751 14.4063 25.7599 14.4063H26.9976V12.3438H29.473V14.4063H30.7107C31.6955 14.4063 32.64 14.7322 33.3364 15.3124C34.0328 15.8926 34.4239 16.6795 34.4239 17.5H31.9485C31.9485 17.2265 31.8181 16.9642 31.586 16.7708C31.3539 16.5774 31.0391 16.4688 30.7107 16.4688H25.7599C25.4316 16.4688 25.1167 16.5774 24.8846 16.7708C24.6525 16.9642 24.5222 17.2265 24.5222 17.5C24.5222 17.7735 24.6525 18.0358 24.8846 18.2292C25.1167 18.4226 25.4316 18.5313 25.7599 18.5313H30.7107C31.6955 18.5313 32.64 18.8572 33.3364 19.4374C34.0328 20.0176 34.4239 20.8045 34.4239 21.625C34.4239 22.4455 34.0328 23.2324 33.3364 23.8126C32.64 24.3928 31.6955 24.7188 30.7107 24.7188H29.473V26.7813H26.9976V24.7188H25.7599C24.7751 24.7188 23.8306 24.3928 23.1342 23.8126C22.4378 23.2324 22.0467 22.4455 22.0467 21.625H24.5222C24.5222 21.8985 24.6525 22.1608 24.8846 22.3542C25.1167 22.5476 25.4316 22.6563 25.7599 22.6563ZM9.66823 13.3747H13.3814V11.3122H8.43044C8.10221 11.3122 7.78741 11.4209 7.55522 11.6143C7.32313 11.8077 7.19274 12.07 7.19274 12.3435V15.4372H9.66823V13.3747ZM49.2758 23.6876V26.7813C49.2758 27.0548 49.1455 27.3171 48.9133 27.5105C48.6812 27.7039 48.3664 27.8126 48.038 27.8126H43.0872V25.7501H46.8004V23.6876H49.2758Z" fill="#808989"/>
<path fill-rule="evenodd" clip-rule="evenodd" d="M62.8927 59.7813H55.4664V2.03124C55.4664 1.75775 55.336 1.49545 55.1039 1.30205C54.8717 1.10866 54.5569 1 54.2287 1H2.24396C1.91573 1 1.60084 1.10866 1.36874 1.30205C1.13665 1.49545 1.00626 1.75775 1.00626 2.03124V60.8125C0.997913 60.8811 0.997913 60.9502 1.00626 61.0188C1.50134 63.0812 3.69207 67 8.43265 67H54.2287C64.019 67 64.1304 60.8744 64.1304 60.8125C64.1304 60.539 64 60.2767 63.768 60.0833C63.5359 59.8899 63.221 59.7813 62.8927 59.7813ZM8.43265 64.9375C4.83085 64.9375 3.65494 61.3384 3.48166 60.6991V8.21875H41.8514V6.15626H3.48166V3.06251H52.9909V59.7813H14.6212C14.3317 59.7764 14.0493 59.8563 13.8231 60.007C13.5969 60.1578 13.4414 60.3698 13.3835 60.6063C13.3835 60.6063 12.3191 64.9375 8.43265 64.9375ZM54.2287 64.9375H13.5568C14.4655 64.026 15.151 62.9749 15.5744 61.8438H61.3704C60.8877 63.0709 59.2786 64.9375 54.2287 64.9375ZM46.8 6.15644H44.3245V8.21895H46.8V6.15644ZM49.2756 31.9377V38.1252C49.2756 38.3987 49.1452 38.661 48.9131 38.8544C48.6809 39.0478 48.3661 39.1565 48.0379 39.1565H8.43044C8.10221 39.1565 7.78741 39.0478 7.55522 38.8544C7.32313 38.661 7.19274 38.3987 7.19274 38.1252V31.9377C7.19274 31.6642 7.32313 31.4019 7.55522 31.2085C7.78741 31.0151 8.10221 30.9064 8.43044 30.9064H48.0379C48.3661 30.9064 48.6809 31.0151 48.9131 31.2085C49.1452 31.4019 49.2756 31.6642 49.2756 31.9377ZM9.66823 37.094H46.8002V32.969H9.66823V37.094ZM49.2754 43.2811H17.0943V45.3436H49.2754V43.2811ZM17.0943 48.4376H49.2754V50.5001H17.0943V48.4376ZM49.2754 53.594H17.0943V55.6565H49.2754V53.594ZM7.19274 45.3436V43.2811H9.66823V45.3436H7.19274ZM14.6206 43.2811H12.1451V45.3436H14.6206V43.2811ZM25.7599 22.6563H30.7107C31.0391 22.6563 31.3539 22.5476 31.586 22.3542C31.8181 22.1608 31.9485 21.8985 31.9485 21.625C31.9485 21.3515 31.8181 21.0892 31.586 20.8958C31.3539 20.7024 31.0391 20.5938 30.7107 20.5938H25.7599C24.7751 20.5938 23.8306 20.2678 23.1342 19.6877C22.4378 19.1075 22.0467 18.3205 22.0467 17.5C22.0467 16.6795 22.4378 15.8926 23.1342 15.3124C23.8306 14.7322 24.7751 14.4063 25.7599 14.4063H26.9976V12.3438H29.473V14.4063H30.7107C31.6955 14.4063 32.64 14.7322 33.3364 15.3124C34.0328 15.8926 34.4239 16.6795 34.4239 17.5H31.9485C31.9485 17.2265 31.8181 16.9642 31.586 16.7708C31.3539 16.5774 31.0391 16.4688 30.7107 16.4688H25.7599C25.4316 16.4688 25.1167 16.5774 24.8846 16.7708C24.6525 16.9642 24.5222 17.2265 24.5222 17.5C24.5222 17.7735 24.6525 18.0358 24.8846 18.2292C25.1167 18.4226 25.4316 18.5313 25.7599 18.5313H30.7107C31.6955 18.5313 32.64 18.8572 33.3364 19.4374C34.0328 20.0176 34.4239 20.8045 34.4239 21.625C34.4239 22.4455 34.0328 23.2324 33.3364 23.8126C32.64 24.3928 31.6955 24.7188 30.7107 24.7188H29.473V26.7813H26.9976V24.7188H25.7599C24.7751 24.7188 23.8306 24.3928 23.1342 23.8126C22.4378 23.2324 22.0467 22.4455 22.0467 21.625H24.5222C24.5222 21.8985 24.6525 22.1608 24.8846 22.3542C25.1167 22.5476 25.4316 22.6563 25.7599 22.6563ZM9.66823 13.3747H13.3814V11.3122H8.43044C8.10221 11.3122 7.78741 11.4209 7.55522 11.6143C7.32313 11.8077 7.19274 12.07 7.19274 12.3435V15.4372H9.66823V13.3747ZM49.2758 23.6876V26.7813C49.2758 27.0548 49.1455 27.3171 48.9133 27.5105C48.6812 27.7039 48.3664 27.8126 48.038 27.8126H43.0872V25.7501H46.8004V23.6876H49.2758Z" stroke="#808989" mask="url(#path-1-outside-1_1461_22198)"/>
</svg>
