<svg width="98" height="99" viewBox="0 0 98 99" fill="none" xmlns="http://www.w3.org/2000/svg">
<path d="M77.1827 27.834C75.9931 27.9827 74.9523 27.834 74.2088 27.0905C73.4653 26.4958 73.0192 25.4549 73.0192 24.414C73.0192 23.5219 72.4245 22.9271 71.5323 22.9271C70.6401 22.9271 70.0454 23.5219 70.0454 24.414C70.0454 26.3471 70.9375 28.1314 72.4245 29.321C73.1679 29.9157 74.2088 30.3618 75.101 30.6592V31.9975C75.101 32.8896 75.6958 33.4844 76.5879 33.4844C77.4801 33.4844 78.0749 32.7409 78.0749 31.9975V30.6592C80.454 30.0644 82.5357 28.1314 82.9818 25.6036C83.2792 23.6706 82.6844 21.7375 81.4949 20.2506C80.3053 18.7636 78.521 17.8715 76.5879 17.8715C75.5471 17.8715 74.6549 17.4254 73.9114 16.6819C73.3166 15.7897 73.0192 14.7489 73.1679 13.708C73.4653 12.3698 74.6549 11.1802 75.9931 10.8828C77.1827 10.7341 78.2236 10.8828 78.967 11.6263C79.7105 12.2211 80.1566 13.2619 80.1566 14.3028C80.1566 15.195 80.7514 15.7897 81.6435 15.7897C82.5357 15.7897 83.1305 15.195 83.1305 14.3028C83.1305 12.3698 82.2383 10.5854 80.7514 9.39587C80.0079 8.65239 79.1157 8.20631 78.0749 8.05762V6.86806C78.0749 5.97589 77.4801 5.38111 76.5879 5.38111C75.6958 5.38111 75.101 5.97589 75.101 6.86806V8.05762C72.7219 8.65239 70.6401 10.5854 70.194 13.1132C69.8967 15.0463 70.4914 16.9793 71.681 18.4662C72.8706 19.9532 74.6549 20.8454 76.5879 20.8454C77.6288 20.8454 78.6697 21.2914 79.2644 22.0349C79.8592 22.9271 80.1566 23.968 80.0079 25.0088C79.7105 26.3471 78.521 27.5366 77.1827 27.834Z" fill="#011414"/>
<path d="M14.8796 42.7035C15.623 42.7035 16.3665 42.8522 16.9613 43.2983C17.5561 43.8931 17.8535 44.4879 17.8535 45.2313C17.8535 46.1235 18.4482 46.7183 19.3404 46.7183C20.2326 46.7183 20.8274 46.1235 20.8274 45.2313C20.8274 43.5957 20.0839 42.1087 18.8943 41.0679C18.2995 40.6218 17.7048 40.1757 16.9613 40.027V39.1348C16.9613 38.2427 16.3665 37.6479 15.4743 37.6479C14.5822 37.6479 13.9874 38.2427 13.9874 39.1348V40.027C12.0544 40.4731 10.5674 42.1087 10.1213 44.1905C9.82395 45.8261 10.27 47.4617 11.3109 48.6513C12.2031 49.6922 13.5413 50.4356 15.0283 50.5843C15.177 50.5843 15.177 50.5843 15.3257 50.5843C16.0691 50.5843 16.8126 50.8817 17.2587 51.4765C17.8535 52.0713 18.0022 52.8148 17.8535 53.5582C17.7048 54.4504 16.8126 55.3426 15.9204 55.4913C15.177 55.4913 14.4335 55.3426 13.8387 54.8965C13.2439 54.3017 12.9465 53.7069 12.9465 52.9634C12.9465 52.0713 12.3518 51.4765 11.4596 51.4765C10.5674 51.4765 9.97264 52.0713 9.97264 52.9634C9.97264 54.5991 10.7161 56.086 11.9057 57.1269C12.5005 57.7217 13.2439 58.0191 13.9874 58.3165V58.9112C13.9874 59.8034 14.5822 60.3982 15.4743 60.3982C16.2178 60.3982 16.9613 59.8034 16.9613 58.9112V58.1678C18.7456 57.573 20.2326 55.9373 20.6787 54.0043C20.9761 52.3687 20.53 50.733 19.4891 49.5435C18.5969 48.5026 17.2587 47.7591 15.7717 47.6104C15.623 47.6104 15.623 47.6104 15.4743 47.6104C14.7309 47.6104 13.9874 47.3131 13.5413 46.7183C12.9465 46.1235 12.7978 45.38 12.9465 44.6365C13.0952 43.7444 13.9874 42.8522 14.8796 42.7035Z" fill="#011414"/>
<path d="M92.0522 64.859C88.3348 61.2903 83.2792 59.3573 77.9262 59.506C70.9375 59.8034 64.8411 63.9668 61.5698 69.7659L28.5595 57.2756C30.0465 54.8965 31.0874 52.0713 31.0874 49.0974C31.0874 46.1235 30.1952 43.2983 28.7082 40.7705L59.7854 29.321C60.5289 30.6592 61.4211 31.8488 62.4619 32.8896C66.1793 36.7557 71.0862 38.8374 76.4393 38.8374C87.1453 38.8374 95.9183 30.0644 95.7696 19.3584C95.7696 14.0054 93.6878 9.09848 89.8218 5.38111C86.1044 1.81244 81.0488 -0.269287 75.6958 0.028102C65.7332 0.474186 57.555 8.6524 57.1089 18.7636C56.9602 21.4401 57.4063 24.1167 58.4472 26.6445L26.7752 38.3913C26.6265 38.2427 26.4778 38.094 26.4778 37.9453C23.3552 34.9714 19.3405 33.4844 15.0283 33.6331C6.85011 33.9305 0.307542 40.4731 0.0101523 48.5026C-0.138542 52.8147 1.34841 56.8295 4.3223 59.9521C7.2962 63.0747 11.1623 64.7103 15.4744 64.7103C19.9352 64.7103 23.8013 62.7773 26.7752 59.8034L60.3802 72.5911C59.7854 74.3755 59.3394 76.1598 59.3394 78.0928C59.042 83.2972 60.975 88.3528 64.6924 92.2188C68.4097 96.0849 73.3167 98.1666 78.6697 98.1666C89.3757 98.1666 98 89.5423 98 78.8363C98 73.4833 95.9183 68.5764 92.0522 64.859ZM75.9932 3.002C76.1419 3.002 76.4393 3.002 76.5879 3.002C80.9001 3.002 84.9149 4.63764 87.8887 7.76023C91.16 10.8828 92.9444 15.0463 92.9444 19.5071C92.9444 28.5775 85.6583 35.8635 76.5879 35.8635C72.1271 35.8635 67.9637 34.0792 64.8411 30.8079C61.7185 27.5366 60.0828 23.2245 60.2315 18.7636C60.5289 10.4367 67.6663 3.29939 75.9932 3.002ZM15.6231 61.5877C12.2031 61.5877 8.93184 60.2495 6.55272 57.7217C4.02491 55.1939 2.83535 51.9226 2.98405 48.5026C3.13274 42.1087 8.63445 36.7557 15.0283 36.4583C15.177 36.4583 15.3257 36.4583 15.4744 36.4583C18.7457 36.4583 21.7196 37.7966 24.3961 39.8783C26.9239 42.2574 28.2622 45.5287 28.2622 48.9487C28.2622 55.9373 22.6118 61.5877 15.6231 61.5877ZM78.6697 95.3414C74.2088 95.3414 70.0454 93.5571 66.9228 90.2858C63.8002 87.0145 62.1646 82.7024 62.3133 78.2415C62.6106 69.9146 69.748 62.7773 78.0749 62.4799C78.2236 62.4799 78.521 62.4799 78.6697 62.4799C82.9818 62.4799 86.9966 63.9668 89.9705 67.2381C93.2418 70.3607 95.0261 74.5242 95.0261 78.985C95.0261 88.0554 87.7401 95.3414 78.6697 95.3414Z" fill="#011414"/>
<path d="M78.0749 70.3607C79.2645 70.2121 80.3053 70.3607 81.0488 71.1042C81.7923 71.699 82.2384 72.7399 82.2384 73.7807C82.2384 74.6729 82.8331 75.2677 83.7253 75.2677C84.6175 75.2677 85.2123 74.6729 85.2123 73.7807C85.2123 71.9964 84.3201 70.0634 82.8331 68.8738C82.0897 68.1303 81.1975 67.6842 80.1566 67.5356V66.1973C80.1566 65.3051 79.5619 64.7104 78.6697 64.7104C77.7775 64.7104 77.1827 65.3051 77.1827 66.1973V67.5356C74.8036 68.1303 72.7219 70.0634 72.2758 72.5912C71.9784 74.5242 72.5732 76.4572 73.7628 77.9442C74.9523 79.4311 76.7367 80.3233 78.6697 80.3233C79.7106 80.3233 80.6027 80.7694 81.3462 81.5129C81.941 82.405 82.2384 83.4459 82.0897 84.4868C81.7923 85.825 80.6027 87.0146 79.2645 87.312C78.0749 87.4606 77.034 87.312 76.2906 86.5685C75.5471 85.9737 75.101 84.9328 75.101 83.892C75.101 82.9998 74.5062 82.405 73.6141 82.405C72.7219 82.405 72.1271 82.9998 72.1271 83.892C72.1271 85.6763 73.0193 87.6093 74.5062 88.7989C75.2497 89.3937 76.2906 89.8398 77.1827 90.1372V91.3267C77.1827 92.2189 77.7775 92.8137 78.6697 92.8137C79.4132 92.8137 80.1566 92.2189 80.1566 91.3267V90.1372C82.5358 89.5424 84.6175 87.6093 85.0636 85.0815C85.361 83.1485 84.7662 81.2155 83.5766 79.7285C82.3871 78.2416 80.6027 77.3494 78.6697 77.3494C77.6288 77.3494 76.7367 76.9033 75.9932 76.1599C75.3984 75.2677 75.101 74.2268 75.2497 73.186C75.5471 71.8477 76.7367 70.6581 78.0749 70.3607Z" fill="#011414"/>
</svg>
