<svg width="98" height="100" viewBox="0 0 98 100" fill="none" xmlns="http://www.w3.org/2000/svg">
<path d="M96.4969 0H30.9632C30.0614 0 29.4601 0.601227 29.4601 1.50307V9.61963C29.3098 9.76994 29.3098 10.0706 29.3098 10.3712V29.7607C12.6258 32.4663 0 47.046 0 64.181C0 83.5706 15.7822 99.2025 35.0215 99.2025C48.8497 99.2025 60.8742 91.0859 66.5859 79.362V79.2117C68.6902 74.8528 69.7423 70.043 69.8926 64.9325C70.043 64.6319 70.0429 64.4816 70.0429 64.181C70.0429 63.8804 69.8926 63.7301 69.8926 63.4295C69.7423 58.6196 68.6902 53.9601 66.7362 49.6012C66.7362 49.1503 66.5859 48.8497 66.2853 48.5491C65.2331 46.4448 64.0307 44.6411 62.6779 42.8374H96.4969C97.2485 42.8374 98 42.2362 98 41.3344V1.50307C98 0.601227 97.3988 0 96.4969 0ZM94.9939 8.71779C92.138 8.11657 89.7331 5.86196 89.1319 3.00614H94.9939V8.71779ZM38.0276 3.00614C37.4264 5.86196 35.3221 7.96626 32.4663 8.71779V3.00614H38.0276ZM46.2945 42.8374C47.046 44.4908 47.6472 46.2945 48.2485 48.2485H36.6749V42.8374H46.2945ZM67.0368 62.6779H53.2086C53.0583 58.7699 52.7577 54.862 52.0061 51.2546H64.3313C65.8344 54.862 66.7362 58.7699 67.0368 62.6779ZM64.3313 77.1074H52.0061C52.7577 73.5 53.2086 69.7423 53.2086 65.6841H67.0368C66.7362 69.7423 65.8344 73.6503 64.3313 77.1074ZM3.15644 65.6841H16.9847C17.135 69.7423 17.4356 73.5 18.1871 77.1074H5.71166C4.20859 73.6503 3.30675 69.7423 3.15644 65.6841ZM5.86196 51.2546H18.1871C17.4356 54.862 16.9847 58.6196 16.9847 62.6779H3.00614C3.30675 58.6196 4.20859 54.862 5.86196 51.2546ZM29.4601 34.4202V41.3344C29.4601 42.2362 30.0614 42.8374 30.9632 42.8374H33.5184V48.2485H21.9448C23.5982 42.0859 26.3037 37.1258 29.4601 34.4202ZM33.5184 51.2546V62.6779H19.8405C19.9908 58.6196 20.4417 54.862 21.1933 51.2546H33.5184ZM19.8405 65.6841H33.5184V77.1074H21.1933C20.4417 73.5 19.9908 69.7423 19.8405 65.6841ZM33.5184 80.1135V95.8957C28.7086 94.8436 24.3497 88.681 21.9448 80.1135H33.5184ZM36.5245 96.046V80.1135H48.0982C45.6933 88.8313 41.4847 94.9939 36.5245 96.046ZM36.5245 77.1074V65.6841H50.2025C50.0521 69.7423 49.6012 73.5 48.8497 77.1074H36.5245ZM50.2025 62.6779H36.5245V51.2546H48.8497C49.6012 54.862 50.0521 58.7699 50.2025 62.6779ZM32.4663 39.8313V34.1196C35.3221 34.7209 37.4264 36.9755 38.0276 39.8313H32.4663ZM26.3037 33.5184C23.1472 36.9755 20.592 42.0859 18.9387 48.2485H7.36503C11.4233 41.1841 18.1871 35.773 26.3037 33.5184ZM7.21472 80.1135H18.638C20.2914 86.4264 22.8466 91.5368 26.0031 94.9939C18.1871 92.589 11.4233 87.1779 7.21472 80.1135ZM43.8896 94.9939C47.046 91.6871 49.6012 86.4264 51.2546 80.1135H62.6779C58.6196 87.1779 51.8558 92.589 43.8896 94.9939ZM62.6779 48.2485H51.1043C50.6534 46.2945 50.0522 44.4908 49.3006 42.8374H58.6196C60.273 44.4908 61.6258 46.2945 62.6779 48.2485ZM41.1841 39.8313C40.4325 35.3221 36.9755 31.7147 32.4663 31.1135V11.7239C36.9755 11.1227 40.4325 7.51534 41.1841 3.00614H86.2761C86.8773 7.51534 90.4847 11.1227 94.9939 11.7239V31.1135C90.4847 31.7147 86.8773 35.3221 86.2761 39.8313H41.1841ZM89.1319 39.8313C89.7331 36.9755 92.138 34.7209 94.9939 34.1196V39.8313H89.1319Z" fill="#011414"/>
<path d="M43.7393 19.9908H41.1841C40.2822 19.9908 39.681 20.592 39.681 21.4938C39.681 22.3957 40.2822 22.9969 41.1841 22.9969H43.7393C44.6411 22.9969 45.2424 22.3957 45.2424 21.4938C45.2424 20.592 44.6411 19.9908 43.7393 19.9908Z" fill="#011414"/>
<path d="M86.1257 19.9908H83.5705C82.6687 19.9908 82.0675 20.592 82.0675 21.4938C82.0675 22.3957 82.6687 22.9969 83.5705 22.9969H86.1257C86.8773 22.9969 87.6288 22.3957 87.6288 21.4938C87.6288 20.592 87.0276 19.9908 86.1257 19.9908Z" fill="#011414"/>
<path d="M65.5337 13.6779C67.3374 13.6779 68.6902 15.1809 68.6902 16.8343C68.6902 17.7362 69.2914 18.3374 70.1933 18.3374C71.0951 18.3374 71.6963 17.7362 71.6963 16.8343C71.6963 13.8282 69.7423 11.5736 67.0368 10.8221V9.92021C67.0368 9.01837 66.4356 8.41714 65.5337 8.41714C64.6319 8.41714 64.0307 9.01837 64.0307 9.92021V10.8221C61.3252 11.4233 59.3712 13.8282 59.3712 16.8343C59.3712 20.2914 62.227 22.9969 65.5337 22.9969C65.6841 22.9969 65.9847 22.9969 66.135 22.8466C67.638 23.1472 68.6902 24.3497 68.6902 26.003C68.6902 27.8067 67.3374 29.1595 65.5337 29.1595C63.7301 29.1595 62.3773 27.6564 62.3773 26.003C62.3773 25.1012 61.7761 24.5 60.8742 24.5C59.9724 24.5 59.3712 25.1012 59.3712 26.003C59.3712 28.8589 61.4755 31.2638 64.0307 32.0153V32.9171C64.0307 33.819 64.6319 34.4202 65.5337 34.4202C66.4356 34.4202 67.0368 33.819 67.0368 32.9171V32.0153C69.7423 31.4141 71.6963 29.0092 71.6963 26.003C71.6963 22.546 68.8405 19.8405 65.5337 19.8405C65.3834 19.8405 65.2331 19.8405 65.0828 19.9908C63.5798 19.6901 62.5276 18.3374 62.5276 16.8343C62.5276 15.1809 63.7301 13.6779 65.5337 13.6779Z" fill="#011414"/>
</svg>
