<svg width="33" height="32" viewBox="0 0 33 32" fill="none" xmlns="http://www.w3.org/2000/svg">
<path d="M8.17682 23.1551H12.0773C12.3517 23.1551 12.6149 23.0461 12.8089 22.8521C13.003 22.658 13.112 22.3949 13.112 22.1205C13.112 21.8461 13.003 21.5829 12.8089 21.3889C12.6149 21.1949 12.3517 21.0859 12.0773 21.0859H8.17682C6.96077 21.0859 5.79453 20.6028 4.93466 19.7429C4.07479 18.883 3.59171 17.7168 3.59171 16.5008C3.59171 15.2847 4.07479 14.1185 4.93466 13.2586C5.79453 12.3987 6.96077 11.9157 8.17682 11.9157H9.01831C9.27677 11.9168 9.5263 11.8211 9.71777 11.6475C9.90925 11.4739 10.0288 11.2349 10.0529 10.9776C10.4185 7.09086 13.8259 4.04906 17.8126 4.04906C19.7783 4.0326 21.6765 4.76547 23.1212 6.09864C24.5658 7.43181 25.4484 9.26518 25.5895 11.2259C25.602 11.4329 25.6764 11.6314 25.8031 11.7956C25.9298 11.9598 26.1029 12.0821 26.3 12.1467C27.3361 12.486 28.2173 13.1835 28.7854 14.114C29.3535 15.0445 29.5714 16.147 29.3998 17.2237C29.2283 18.3003 28.6786 19.2806 27.8494 19.9884C27.0202 20.6963 25.9659 21.0854 24.8756 21.0859H20.9751C20.7007 21.0859 20.4375 21.1949 20.2435 21.3889C20.0495 21.5829 19.9405 21.8461 19.9405 22.1205C19.9405 22.3949 20.0495 22.658 20.2435 22.8521C20.4375 23.0461 20.7007 23.1551 20.9751 23.1551H24.8756C26.3936 23.1487 27.8637 22.6233 29.0419 21.6662C30.2202 20.709 31.0356 19.3778 31.353 17.8933C31.6703 16.4089 31.4705 14.8606 30.7866 13.5054C30.1027 12.1501 28.9759 11.0696 27.5932 10.443C27.2534 8.14659 26.1166 6.04285 24.382 4.5001C22.6473 2.95736 20.4253 2.07392 18.1048 2.00443C15.7844 1.93495 13.5135 2.68386 11.6896 4.12005C9.86577 5.55625 8.60517 7.5882 8.12854 9.8602C6.36369 9.86706 4.67386 10.5747 3.43078 11.8275C2.18769 13.0803 1.49319 14.7756 1.50005 16.5404C1.50691 18.3053 2.21457 19.9951 3.46735 21.2382C4.72014 22.4813 6.41542 23.1758 8.18027 23.1689L8.17682 23.1551Z" fill="#808989"/>
<path d="M16.5265 15.4127C16.2521 15.4127 15.9889 15.5217 15.7949 15.7158C15.6008 15.9098 15.4918 16.1729 15.4918 16.4473V27.1936L12.7328 24.6036C12.6348 24.507 12.5184 24.4308 12.3905 24.3797C12.2626 24.3286 12.1259 24.3036 11.9882 24.306C11.8505 24.3085 11.7147 24.3384 11.5887 24.394C11.4627 24.4496 11.3491 24.5298 11.2546 24.6299C11.16 24.73 11.0863 24.8479 11.0379 24.9768C10.9895 25.1058 10.9674 25.243 10.9727 25.3806C10.978 25.5182 11.0108 25.6534 11.0691 25.7782C11.1273 25.9029 11.2099 26.0148 11.312 26.1073L15.7953 30.3458C15.9874 30.5272 16.2416 30.6283 16.5058 30.6283C16.77 30.6283 17.0241 30.5272 17.2162 30.3458L21.6996 26.1073C21.8499 25.9143 21.927 25.6742 21.9172 25.4298C21.9073 25.1853 21.8111 24.9523 21.6458 24.772C21.4804 24.5917 21.2564 24.4759 21.0138 24.4451C20.7711 24.4143 20.5253 24.4704 20.3201 24.6036L17.5611 27.1936V16.4473C17.5611 16.1729 17.4521 15.9098 17.258 15.7158C17.064 15.5217 16.8009 15.4127 16.5265 15.4127Z" fill="#808989"/>
</svg>
