<svg width="1440" height="730" viewBox="0 0 1440 730" fill="none" xmlns="http://www.w3.org/2000/svg">
<path d="M1552.5 277.753C1494 295.586 1369.6 305.253 1340 201.253C1303 71.2526 1259 121.753 1253 75.7525C1247 29.7525 1437.5 -15.2475 1552.5 6.75252" stroke="#02A0E3" stroke-width="2"/>
<path d="M0 478C11.1667 457.167 42.9 419.1 80.5 433.5C127.5 451.5 120 492 120 512.5C120 533 148.5 635.5 177 616C205.5 596.5 303 495 320 577.5C332.158 636.5 415.335 617.442 386.5 665.5C364 703 283.833 720.667 292 729" stroke="#02A0E3" stroke-width="2"/>
</svg>
